/* XPM */
static char *b16fc5f4022843d7e15b48258b82a31czYRFyuRDU1Sb3Tuf[] = {
/* columns rows colors chars-per-pixel */
"50 33 203 2 ",
"   c None",
".  c #151C2E",
"X  c #181F30",
"o  c #1C2434",
"O  c #1F2938",
"+  c #1F2837",
"@  c #232C3A",
"#  c #282934",
"$  c #332F35",
"%  c #27323E",
"&  c #363136",
"*  c #3A3337",
"=  c #343339",
"-  c #3A363B",
";  c #473A3E",
":  c #4A3D3E",
">  c #4E413C",
",  c #5A483F",
"<  c #52433D",
"1  c #263442",
"2  c #293642",
"3  c #2E3B45",
"4  c #323D45",
"5  c #2E404F",
"6  c #3E4447",
"7  c #34434B",
"8  c #3A474C",
"9  c #3A4549",
"0  c #354953",
"q  c #3C4D52",
"w  c #354E59",
"e  c #3E5155",
"r  c #3C545C",
"t  c #3B5761",
"y  c #3C5962",
"u  c #454141",
"i  c #4D4443",
"p  c #414A4B",
"a  c #5C4C42",
"s  c #564640",
"d  c #595B4B",
"f  c #535349",
"g  c #444E50",
"h  c #425154",
"j  c #4B5A56",
"k  c #41565A",
"l  c #435A5D",
"z  c #495858",
"x  c #644E42",
"c  c #665043",
"v  c #6A5343",
"b  c #6C5D4B",
"n  c #64594A",
"m  c #7C5E4B",
"M  c #735848",
"N  c #58655B",
"B  c #6C6F49",
"V  c #7B664B",
"C  c #616554",
"Z  c #786E58",
"A  c #78775B",
"S  c #78744E",
"D  c #445D64",
"F  c #485F60",
"G  c #466165",
"H  c #496365",
"J  c #45636A",
"K  c #4A6669",
"L  c #4C6A6C",
"P  c #526B6B",
"I  c #5A6F6D",
"U  c #4E6E72",
"Y  c #476B71",
"T  c #526F70",
"R  c #4D7278",
"E  c #537273",
"W  c #597576",
"Q  c #537579",
"!  c #547B7E",
"~  c #5B7C7D",
"^  c #5C7778",
"/  c #6A7565",
"(  c #757E65",
")  c #657D74",
"_  c #8A664F",
"`  c #956F4F",
"'  c #81764C",
"]  c #97704E",
"[  c #8F6A50",
"{  c #847F5D",
"}  c #9B7352",
"|  c #987A56",
" . c #A47A53",
".. c #AA7C55",
"X. c #A27B57",
"o. c #73916C",
"O. c #65827C",
"+. c #6B847C",
"@. c #778B7A",
"#. c #6E957E",
"$. c #75957C",
"%. c #9D8D53",
"&. c #89815B",
"*. c #AC8359",
"=. c #A98459",
"-. c #B18458",
";. c #B48457",
":. c #B5915F",
">. c #A9974F",
",. c #AEB059",
"<. c #B4A459",
"1. c #868461",
"2. c #868A62",
"3. c #8F9762",
"4. c #999768",
"5. c #859675",
"6. c #969B78",
"7. c #AC8D62",
"8. c #AF9065",
"9. c #BD9762",
"0. c #94A366",
"q. c #9CA37E",
"w. c #97AB7F",
"e. c #9BA774",
"r. c #85A57A",
"t. c #B1A86D",
"y. c #A9BC6E",
"u. c #BCB268",
"i. c #A7A272",
"p. c #B5B97B",
"a. c #A8A56C",
"s. c #C0955F",
"d. c #CAC250",
"f. c #D0C15F",
"g. c #CCD66F",
"h. c #E8DB7E",
"j. c #F0EB74",
"k. c #EAE67D",
"l. c #567F82",
"z. c #597A82",
"x. c #568285",
"c. c #5C8384",
"v. c #5C858A",
"b. c #5C8C8D",
"n. c #5D8887",
"m. c #5F8F90",
"M. c #648582",
"N. c #678B87",
"B. c #6F8983",
"V. c #628B8D",
"C. c #698A86",
"Z. c #6E928C",
"A. c #699085",
"S. c #698F94",
"D. c #629494",
"F. c #6B9394",
"G. c #649599",
"H. c #6B9699",
"J. c #659B9C",
"K. c #6A9C9C",
"L. c #6B9896",
"P. c #729692",
"I. c #759C94",
"U. c #769B98",
"Y. c #6CA09E",
"T. c #73A19E",
"R. c #7AA79D",
"E. c #6B9FA1",
"W. c #6CA2A3",
"Q. c #73A4A4",
"!. c #77A9A6",
"~. c #7EABA5",
"^. c #74ABAB",
"/. c #7AACAB",
"(. c #75A7A7",
"). c #7DB0AF",
"_. c #7AAEB1",
"`. c #7DB3B3",
"'. c #8B9D87",
"]. c #8BA98F",
"[. c #86AB9E",
"{. c #96AB8D",
"}. c #B1BA88",
"|. c #82ABA4",
" X c #82ACA8",
".X c #83B3AD",
"XX c #8AB3A6",
"oX c #82B5B4",
"OX c #84B8B6",
"+X c #83B7B8",
"@X c #84BABA",
"#X c #8ABDBB",
"$X c #8CBBB5",
"%X c #92BDB1",
"&X c #90BEB9",
"*X c #97BCAB",
"=X c #BCC497",
"-X c #9AC2B3",
";X c #97C3BA",
":X c #9DC2A8",
">X c #ECEB82",
",X c #8CC3C3",
"<X c #92C6C3",
/* pixels */
"                                                                                                    ",
"                                            @ % r l 7 @                                             ",
"                                    0 Q J D.b.l.D.D.b.Q E 1.+.5                                     ",
"                                  r Q._.L./.^.K.J.^.^.W.W.M.).E.r                                   ",
"                            1 w 1 E !.%X}.]._.H.D.`.,X@Xv.v.#X!.E 1 w 1                             ",
"                          r J B.g H V.R.5.) W.K.K.W.K.(.c.@.R.V.l 0 b.J r                           ",
"                        2 x.E p.( H._.v.l T /.`.!.W V.`.O.u.=X!.K.E b.Q x.2                         ",
"                      2 k l z d z L.;X(.0 K W.^..XZ.n.E.E %.p.oXQ.H e q l k 2                       ",
"                    % 7 D ^ i.d H D.K.H.z.~ b.J.J.v.U Y.v.E M.J.D.K 7 L ~ l 7 %                     ",
"                  8 F 7 Q OXw.{ t./ D Q.,X$X~.^ ! H 0 H.$X;X~.J w K H.#X,XE 3 l 8                   ",
"                  h 0 q c.^.XXg.h.V G n.Q.XX*XP E c.S.F.M.Y.D.L A 6.oX`.^.c.q g j                   ",
"                % 7 % k ! b.J.o.S p H D.J.J.D.e n.`.OXP.L n.6.C d.>Xr.J.b.~ r f A %                 ",
"              % z N e F.oXV.H.D.l 2 U D.J.J.O.1.O.J.W.v.c.C.e./ ' ,.$.G.V.oXF.q l k @               ",
"              z 4.<.I `.,X,X<X#X~ 0 H.oX/.!.B.q.P G (..X.X/.W.H.0 ~ #X<X<X<X`.L e k q               ",
"              e B ' Q W.^.$X-XP.P 7 T Q.%X-X%XW.Q q c.J.J.J.D.E 7 P P.-X-X[.T.x.2 3 h               ",
"            @ 7 7 Q v.W.J.J.K.c.k - N M.Z.I.I.O.A Z N M.C.V.~ N 6 k c.K.c.4.{.v.Q 8 6 @             ",
"            @ 3 r E P.+X@X^.J.! 7 s *.| b 8.7.b 9.:.b =.X.n | =.a 7 W i.i.2.].H.P &.A @             ",
"            2 Q L.@.u.3.F.T.U G l i ..` v -. .c .. .c  ...c } ..i l h >.k.0.E P W I.) 2             ",
"          o G ^.oXy.j.>.A 4.J c.r = x < * v , * c v * x , * s v = r ~ @.w.N D Q.&X,X(.D o           ",
"          O ! W.J.#.0.f N o. X XW 7 ; i : . . . . . . . . - ; : 7 W XX;X`.Q K !..X(.K.! O           ",
"          + ! Q.J.J.P.Z K J.Y.J.n.0 M } _ # . . . . . . # m [ m q n.J.Y.I.( h l.J.J.Q.! +           ",
"          7 b.`.+X+X:Xa.q J.K.D.Q 3 M ..} $ . . . . . . $ *.*.M d q.L.J.( f.'._.@XOX`.b.7           ",
"        X k D.W.~.|..XM.F.+X@X/.V.t a } *.& . . . . . . & *.*.a N }..X@XM.5.A.oX|.~.W.D.k X         ",
"        + 3 r R J.J.D.N.;X<X#X@XoX! u *.s.> . . . . . . : -. .u R /.@X#X<X;XN.D.J.J.R r 3 +         ",
"                ! b.y e I.~.Y.J.b.E g  .;.> . . . . . . < ;.] 8 L m.J.Y.~.I.e t b.!                 ",
"                      @ Y b.D.b.w 2 4 m  .a . .     . . ,  .V % @ 0 x.G.v.J +                       ",
"                                    . & c x .         . $ s s                                       ",
"                                                                                                    ",
"                                                                                                    ",
"                                                                                                    ",
"                                                                                                    ",
"                                                                                                    ",
"                                                                                                    "
};
