/* XPM */
static char *result[] = {
/* columns rows colors chars-per-pixel */
"50 33 204 2 ",
"   c #181F30",
".  c #151B2D",
"X  c #1C2434",
"o  c #1F2938",
"O  c #1F2837",
"+  c #232C3A",
"@  c #222A37",
"#  c #27323E",
"$  c #343239",
"%  c #393539",
"&  c #473B3E",
"*  c #4A3C3F",
"=  c #5B5739",
"-  c #61553E",
";  c #69663A",
":  c #7B7D3B",
">  c #263442",
",  c #293642",
"<  c #2E3B45",
"1  c #323D45",
"2  c #2E404F",
"3  c #34434B",
"4  c #3A474C",
"5  c #3C4448",
"6  c #354953",
"7  c #3C4D52",
"8  c #354E59",
"9  c #3E5155",
"0  c #3C545C",
"q  c #3B5861",
"w  c #454141",
"e  c #4E4443",
"r  c #414A4B",
"t  c #5D4E44",
"y  c #564640",
"u  c #595B4B",
"i  c #535349",
"p  c #444E50",
"a  c #425154",
"s  c #41565A",
"d  c #435A5D",
"f  c #4A5957",
"g  c #645141",
"h  c #695442",
"j  c #6C5D4B",
"k  c #695947",
"l  c #765A49",
"z  c #664F45",
"x  c #58655B",
"c  c #7A6648",
"v  c #7B7348",
"b  c #786E58",
"n  c #78775B",
"m  c #676A4F",
"M  c #445D64",
"N  c #485F60",
"B  c #496365",
"V  c #45636A",
"C  c #4A6669",
"Z  c #4C6A6C",
"A  c #466165",
"S  c #526B6B",
"D  c #5A6F6D",
"F  c #4E6E72",
"G  c #476B71",
"H  c #526F70",
"J  c #4D7278",
"K  c #537273",
"L  c #597576",
"P  c #537579",
"I  c #547B7E",
"U  c #5B7C7D",
"Y  c #5C7778",
"T  c #6A7565",
"R  c #757E65",
"E  c #657D74",
"W  c #807C3E",
"Q  c #826F44",
"!  c #976F4E",
"~  c #86754B",
"^  c #96714F",
"/  c #8F6B50",
"(  c #847F5D",
")  c #9C7552",
"_  c #957B58",
"`  c #A27653",
"'  c #AA7D55",
"]  c #A17C56",
"[  c #7C8238",
"{  c #65827C",
"}  c #6B847C",
"|  c #778B7A",
" . c #729477",
".. c #8A8B3C",
"X. c #8D903C",
"o. c #938757",
"O. c #A89748",
"+. c #AA8253",
"@. c #AB8359",
"#. c #A5855B",
"$. c #B68B55",
"%. c #B8975A",
"&. c #AC9658",
"*. c #BFAE4E",
"=. c #BAA855",
"-. c #AEB059",
";. c #868661",
":. c #999768",
">. c #859675",
",. c #969B78",
"<. c #8F9762",
"1. c #AE8E64",
"2. c #BD9762",
"3. c #94A366",
"4. c #9AA77C",
"5. c #85A57A",
"6. c #BCB268",
"7. c #A7A272",
"8. c #B5B97B",
"9. c #ABAE6D",
"0. c #CFA854",
"q. c #D4B351",
"w. c #CEAE57",
"e. c #BDC041",
"r. c #D8CE49",
"t. c #CAD145",
"y. c #D9D745",
"u. c #C9C853",
"i. c #D0C15F",
"p. c #D4DA5B",
"a. c #E0D64A",
"s. c #E1D848",
"d. c #DAE142",
"f. c #E5EC45",
"g. c #ECF34B",
"h. c #ECF253",
"j. c #CBD36B",
"k. c #D5DB62",
"l. c #E8DB7E",
"z. c #EEF467",
"x. c #EEEC78",
"c. c #577D82",
"v. c #568285",
"b. c #5C8384",
"n. c #5C858A",
"m. c #5C8C8D",
"M. c #5D8887",
"N. c #5F8F90",
"B. c #648582",
"V. c #678B87",
"C. c #628B8D",
"Z. c #6B8A85",
"A. c #6C9189",
"S. c #629494",
"D. c #6B9394",
"F. c #659B9C",
"G. c #6A9C9C",
"H. c #699698",
"J. c #729692",
"K. c #759C94",
"L. c #769B98",
"P. c #698F94",
"I. c #6CA09E",
"U. c #77A49D",
"Y. c #6B9FA1",
"T. c #6CA2A3",
"R. c #73A4A4",
"E. c #77A9A6",
"W. c #7EABA5",
"Q. c #74ABAB",
"!. c #7AACAB",
"~. c #75A7A7",
"^. c #7DB0AF",
"/. c #7AAEB1",
"(. c #7DB3B3",
"). c #8B9D87",
"_. c #8BA98F",
"`. c #8EAB96",
"'. c #B1BA88",
"]. c #82ABA4",
"[. c #82ACA8",
"{. c #83B3AD",
"}. c #8AB3A6",
"|. c #82B5B4",
" X c #84B8B6",
".X c #83B7B8",
"XX c #84BABA",
"oX c #8ABDBB",
"OX c #8CBBB5",
"+X c #92BDB1",
"@X c #90BEB9",
"#X c #97BCAB",
"$X c #BCC497",
"%X c #9AC2B3",
"&X c #97C3BA",
"*X c #9DC2A8",
"=X c #EFF084",
"-X c #F6FAA9",
";X c #F7FABD",
":X c #8CC3C3",
">X c #92C6C3",
",X c #F9FCC3",
"<X c #FFFFF7",
"1X c None",
/* pixels */
"1X1X1X1X1X1X1X1X1X1X1X1X1X1X1X1X1X1X1X1X1X1X1X1X1X1X1X1X1X1X1X1X1X1X1X1X1X1X1X1X1X1X1X1X1X1X1X1X1X1X",
"1X1X1X1X1X1X1X1X1X1X1X1X1X1X1X1X1X1X1X1X1X1X> > 0 d 3 + 1X1X1X1X1X1X1X1X1X1X1X1X1X1X1X1X1X1X1X1X1X1X",
"1X1X1X1X1X1X1X1X1X1X1X1X1X1X1X1X1X1X6 P V S.m.c.S.S.m.I K ;.} 2 1X1X1X1X1X1X1X1X1X1X1X1X1X1X1X1X1X1X",
"1X1X1X1X1X1X1X1X1X1X1X1X1X1X1X1X1X0 R./.D.E.Q.G.H.Q.Q.T.R.B.(.T.0 1X1X1X1X1X1X1X1X1X1X1X1X1X1X1X1X1X",
"1X1X1X1X1X1X1X1X1X1X1X1X1X1X> 8 > K !.+X'._./.F.S.(.:X(.b.m.oXE.H > 8 > 1X1X1X1X1X1X1X1X1X1X1X1X1X1X",
"1X1X1X1X1X1X1X1X1X1X1X1X1X0 V } p A C.E.>.E T.T.I.T.I.R.c.| U.C.d 7 n.V 0 1X1X1X1X1X1X1X1X1X1X1X1X1X",
"1X1X1X1X1X1X1X1X1X1X1X1X, v.L 8.R H./.n.f K Q.(.E.Y M./.} 6.$X!.G.K N.K v., 1X1X1X1X1X1X1X1X1X1X1X1X",
"1X1X1X1X1X1X1X1X1X1X1X, d d a u f H.&X~.6 B I.Q.[.A.M.I.D #.8.|.R.B 9 9 d d , 1X1X1X1X1X1X1X1X1X1X1X",
"1X1X1X1X1X1X1X1X1X1X# 3 M Y 7.u B S.G.G.c.U m.F.I.M.F I.n.K B.F.S.Z 3 G I 0 4 # 1X1X1X1X1X1X1X1X1X1X",
"1X1X1X1X1X1X1X1X1X4 d 3 P XX4.;.9.T A R.:XOXW.L { A 7 H.OX&XW.V 8 V F.&X:XJ < d 4 1X1X1X1X1X1X1X1X1X",
"1X1X1X1X1X1X1X1X1Xp 7 9 { Q.}.j.l.c A M.R.}.%XZ J v.D.D.B.G.S.S n ,.|.(.Q.b.7 r f 1X1X1X1X1X1X1X1X1X",
"1X1X1X1X1X1X1X1X# 3 # s U M.H. .v r A S.G.G.S.0 v.(. XJ.Z b.,.m q.=X5.F.m.I 0 i n # 1X1X1X1X1X1X1X1X",
"1X1X1X1X1X1X1X# f x 7 D..Xm.G.S.d , H S.F.F.{ ;.{ F.T.n.b.V.4.T v -. .H.C.|.D.7 d s + 1X1X1X1X1X1X1X",
"1X1X1X1X1X1X1Xs :.=.D /.:X:X:XoXU 6 D.|.!.E.} 7.S A ~.^.{.Q.R.H.6 { :X>X>X>X(.Z 9 d 9 1X1X1X1X1X1X1X",
"1X1X1X1X1X1X1Xp m v P T.Q.OX#XJ.S 5 H T.%X%X+XR.P 7 { F.I.I.S.F 4 Z J.%X%X].U.v.# 1 a 1X1X1X1X1X1X1X",
"1X1X1X1X1X1X@ 3 < P m.T.Y.F.Y.b.s 1 x B.A.K.J.{ n b S { V.B.Y D 5 9 b.G.{ :._.n.L 4 5 @ 1X1X1X1X1X1X",
"1X1X1X1X1X1X+ , f D J. X.XQ.F.L 1 y @._ j 1.1.j 2.1.j #.#.k _ @.t 3 L 4.7.;._.D.Z o.n @ 1X1X1X1X1X1X",
"1X1X1X1X1X1X, I D.Z.6.<.S.U.F B M e ' ^ h $.' h ' ' h +.' - ) ' e d a &.x.3.L S Y K.E # 1X1X1X1X1X1X",
"1X1X1X1X1XX V T.XX9.x.O.b <.V b.s 1 k = % : : = c ..= ..; % = h $ 0 U | 4.x M R.oX:XQ.M X 1X1X1X1X1X",
"1X1X1X1X1XO I T.T. .3.i x | [.[.L 1 * * & [ t.p.j.u.p.t.W % & * 3 L }.&X(.K V E.}.E.G.I o 1X1X1X1X1X",
"1X1X1X1X1Xo { T.T.T.H.n B F.T.F.n.4 l ) / o.g.,X<X-Xz.f.X.v / l p b.G.I.J.R 9 v.G.G.T.v.O 1X1X1X1X1X",
"1X1X1X1X1X3 m.(.(.(.*X7.7 F.G.F.P 1 l ' O.X.g.=X-X,Xz.f.: w.+.l i 4.S.Y.R i.).^.XX(.(.m.3 1X1X1X1X1X",
"1X1X1X1X  0 S.I.W.U.{.{ D..XoX!.C.q t ) *.[ f.f.h.z.h.d.; w.+.t x '.{.XXB.>.A.{.W.W.T.S.0   1X1X1X1X",
"1X1X1X1XX 2 0 J I.F.S.V.&X>XoXXX.XP w ' w.[ y.y.a.y.y.d.[ %.` w F /.XXoX>X&XV.S.F.F.J 0 < O 1X1X1X1X",
"1X1X1X1X1X1X1X1XI m.q 9 K.!.T.F.C.H p ` $.: r.a.q.0.r.t.; $.! r F N.F.I.!.U.9 q m.I 1X1X1X1X1X1X1X1X",
"1X1X1X1X1X1X1X1X1X1X1X+ G m.S.m.8 < 1 l ` v y.a.0.0.q.O.- ) / + o 6 v.S.n.V O 1X1X1X1X1X1X1X1X1X1X1X",
"1X1X1X1X1X1X1X1X1X1X1X1X1X1X1X1X1X1X  % z h [ 1X1X1X1X1X$ y * 1X1X1X1X1X1X1X1X1X1X1X1X1X1X1X1X1X1X1X",
"1X1X1X1X1X1X1X1X1X1X1X1X1X1X1X1X1X1X1X1X1X1X1X1X1X1X1X1X1X1X1X1X1X1X1X1X1X1X1X1X1X1X1X1X1X1X1X1X1X1X",
"1X1X1X1X1X1X1X1X1X1X1X1X1X1X1X1X1X1X1X1X1X1X1X1X1X1X1X1X1X1X1X1X1X1X1X1X1X1X1X1X1X1X1X1X1X1X1X1X1X1X",
"1X1X1X1X1X1X1X1X1X1X1X1X1X1X1X1X1X1X1X1X1X1X1X1X1X1X1X1X1X1X1X1X1X1X1X1X1X1X1X1X1X1X1X1X1X1X1X1X1X1X",
"1X1X1X1X1X1X1X1X1X1X1X1X1X1X1X1X1X1X1X1X1X1X1X1X1X1X1X1X1X1X1X1X1X1X1X1X1X1X1X1X1X1X1X1X1X1X1X1X1X1X",
"1X1X1X1X1X1X1X1X1X1X1X1X1X1X1X1X1X1X1X1X1X1X1X1X1X1X1X1X1X1X1X1X1X1X1X1X1X1X1X1X1X1X1X1X1X1X1X1X1X1X",
"1X1X1X1X1X1X1X1X1X1X1X1X1X1X1X1X1X1X1X1X1X1X1X1X1X1X1X1X1X1X1X1X1X1X1X1X1X1X1X1X1X1X1X1X1X1X1X1X1X1X"
};
