/* XPM */
static char *_408246821a14e5afc630ddc88b91951Ifl5eunECgGjkdaO[] = {
/* columns rows colors chars-per-pixel */
"50 50 202 2 ",
"   c None",
".  c #B06B4D",
"X  c #B16B4D",
"o  c #B16C4D",
"O  c #B26D4D",
"+  c #B46F4C",
"@  c #B5704B",
"#  c #B6714B",
"$  c #B5704C",
"%  c #BA7649",
"&  c #B8744A",
"*  c #B9754A",
"=  c #BA754A",
"-  c #BC7749",
";  c #BF7A48",
":  c #BF7B48",
">  c #C07B47",
",  c #C07C47",
"<  c #C17C47",
"1  c #C17D47",
"2  c #C27D46",
"3  c #C27D47",
"4  c #C27E46",
"5  c #C37F46",
"6  c #D3913F",
"7  c #D3923F",
"8  c #D4933F",
"9  c #D6973D",
"0  c #D4943E",
"q  c #D5943E",
"w  c #D5953E",
"e  c #D4943F",
"r  c #D5963E",
"t  c #D6963E",
"y  c #D6973E",
"u  c #D7993D",
"i  c #DA9F3B",
"p  c #D89A3C",
"a  c #D99C3C",
"s  c #D99D3C",
"d  c #DBA03A",
"f  c #DBA13A",
"g  c #DBA03B",
"h  c #DCA23A",
"j  c #DCA33A",
"k  c #DDA539",
"l  c #DEA539",
"z  c #DEA638",
"x  c #DEA639",
"c  c #DFA838",
"v  c #DFA938",
"b  c #E0AA37",
"n  c #E1AB37",
"m  c #E2AD36",
"M  c #E3AF36",
"N  c #E0A938",
"B  c #E5B331",
"V  c #E7B733",
"C  c #E3B035",
"Z  c #E4B135",
"A  c #E5B334",
"S  c #E5B335",
"D  c #E6B434",
"F  c #E8B833",
"G  c #E8B933",
"H  c #E9BA32",
"J  c #EABC31",
"K  c #EABC32",
"L  c #FFE31D",
"P  c #FFE21E",
"I  c #ECC02F",
"U  c #EDC12F",
"Y  c #EEC32F",
"T  c #EFC52F",
"R  c #EFC62E",
"E  c #F1C929",
"W  c #F1C92D",
"Q  c #F2CA2D",
"!  c #F2CB2D",
"~  c #F0C82E",
"^  c #F1C82E",
"/  c #F4CF2C",
"(  c #F5D026",
")  c #F8D525",
"_  c #FAD927",
"`  c #FBDB27",
"'  c #FBDC26",
"]  c #FBDC27",
"[  c #FDDE25",
"{  c #FCDD27",
"}  c #FDDE26",
"|  c #FDDF26",
" . c #FCDE27",
".. c #F5D12B",
"X. c #F8D529",
"o. c #F8D629",
"O. c #F8D729",
"+. c #F9D729",
"@. c #F9D829",
"#. c #FAD928",
"$. c #FADA28",
"%. c #FADB28",
"&. c #FBDB28",
"*. c #ECC130",
"=. c #EDC130",
"-. c #EDC230",
";. c #FBDC34",
":. c #FFE220",
">. c #FFE221",
",. c #FFE321",
"<. c #FFE322",
"1. c #FFE323",
"2. c #FFE422",
"3. c #FFE423",
"4. c #FFE523",
"5. c #FDE024",
"6. c #FFE324",
"7. c #FFE225",
"8. c #FFE325",
"9. c #FDE026",
"0. c #FEE126",
"q. c #FFE326",
"w. c #FFE424",
"e. c #FFE524",
"r. c #FFE425",
"t. c #FFE426",
"y. c #FFE42E",
"u. c #FFE52E",
"i. c #FFE42F",
"p. c #FFE531",
"a. c #FFE631",
"s. c #FFE731",
"d. c #FFE63A",
"f. c #FDE23C",
"g. c #FFE63D",
"h. c #FFE63F",
"j. c #C68145",
"k. c #C78345",
"l. c #CA8543",
"z. c #CB8643",
"x. c #CC8743",
"c. c #C98544",
"v. c #CE8B41",
"b. c #CF8B41",
"n. c #CD8842",
"m. c #CD8942",
"M. c #CC8843",
"N. c #CE8942",
"B. c #CF8942",
"V. c #CE8A42",
"C. c #CF8A42",
"Z. c #CF8B42",
"A. c #D08B41",
"S. c #D08C41",
"D. c #D18D41",
"F. c #D28F40",
"G. c #D29040",
"H. c #FFE741",
"J. c #FFE743",
"K. c #FFE744",
"L. c #FFE847",
"P. c #FFE84F",
"I. c #FFEA5F",
"U. c #FFEB65",
"Y. c #FFEB66",
"T. c #FFEB67",
"R. c #FFEC6E",
"E. c #FFED76",
"W. c #FFEE78",
"Q. c #FFEF80",
"!. c #FFF088",
"~. c #FFF089",
"^. c #FFF08A",
"/. c #FFF190",
"(. c #FFF191",
"). c #FFF192",
"_. c #FFF193",
"`. c #FFF395",
"'. c #FFF39F",
"]. c #FFF4AD",
"[. c #FFF5B5",
"{. c #FFF6B5",
"}. c #FFF6BA",
"|. c #FFF6BC",
" X c #FFF6BD",
".X c #FFF7C1",
"XX c #FFF8C5",
"oX c #FFF9D2",
"OX c #FFFAD7",
"+X c #FFFADA",
"@X c #FFFBE0",
"#X c #FFFBE1",
"$X c #FFFBE2",
"%X c #FFFBE3",
"&X c #FFFCE5",
"*X c #FFFCE7",
"=X c #FFFCE9",
"-X c #FFFDEF",
";X c #FFFDF0",
":X c #FFFDF3",
">X c #FFFEF9",
",X c white",
/* pixels */
"                                                                                                    ",
"                                                                                                    ",
"                                          o o o                                                     ",
"                                          o o                                                       ",
"                                            o                                                       ",
"                                            o                                                       ",
"                                                                                                    ",
"                                                                                                    ",
"                                                                                                    ",
"                                                                                                    ",
"                                        b.y i i s A.                                                ",
"                                  S.S.G.Z W $.$.o.V 6 S.                                            ",
"                                S.S.b.c { ` W V G D 6 S.S.                                          ",
"                              S.S.S.A.j c y G.b.b.b.S.S.S.S.                                        ",
"                                  S.S.A.b.b.b.A.A.A.A.S.                                            ",
"                              S.S.S.A.S.y y y y y y y 6 b.S.                                        ",
"                            S.S.S.b.8 G o.$.$.$.$.$.Y M d b.S.S.                                    ",
"                          S.S.S.b.d W r.r.r.r.r.r.r.W u d 8 S.S.S.                                  ",
"                        S.S.S.S.S.W r.<.<.<.<.<.<.q.q.N 6 W x b.S.S.                                ",
"                      S.S.S.S.b.x q.q.T.I.H.~._.~.d.r.o.s -.G b.S.S.S.                              ",
"                      S.S.S.S.G.W 3.d.OX[.#X,X,X,X~.<.q.$.q.G b.S.S.S.                              ",
"                      S.S.S.A.y $.3.h.#X-X,X,X,X,X_.<.q.r.r.V b.S.S.S.                              ",
"                      S.S.S.A.y o.{ h.oX].,X,X,X,X~.<.q.q.r.G b.S.S.S.                              ",
"                      S.S.S.S.6 d J a.W.P.#X,X,X#XH.<.q.q.$.x b.S.S.                                ",
"                      S.S.S.S.S.b.G r.<.q.R.#X,X_.<.q.r./ s S.S.S.S.                                ",
"                        S.S.S.S.b.x $.q.q.q.K.Q.d.q.r.r.{ Z b.S.S.S.                                ",
"                          S.S.S.S.S.y T r.q.<.<.q.q.W ..{ x b.S.S.                                  ",
"                            S.S.S.S.b.8 W r.q.q.q.T M o.n A.S.S.                                    ",
"                              S.S.b.S.b.x { q.r.$.y Z T S.S.S.                                      ",
"                              S.b.& k.S.y o.r.r.$.y G.G.S.S.S.                                      ",
"                              S.b.+ & b.A.J r.r.o.y A.S.S.S.                                        ",
"                                b.+ + b.G.n { r.J S.b.b.S.S.                                        ",
"                              S.k.o o k.D -.$.q.x A.2 2 S.S.S.                                      ",
"                              S.: X X : G { q.$.y S.> 2 S.S.S.S.                                    ",
"                            S.b.@ o o 2 j C $.$.y S.2 & b.S.S.S.                                    ",
"                          S.S.2 o o + l.b.y $.q.x A.2 X 2 S.S.S.                                    ",
"                        S.S.S.: X X & : 2 y ` 3.G b.l.@ @ b.S.S.S.                                  ",
"                      S.S.S.b.@ X $ 2 @ 2 p ;.a.G j Z b.2 b.S.S.S.S.                                ",
"                      S.S.S.b.2 2 c.& - x.B ~.~.) Z ] n S.S.S.S.S.S.S.                              ",
"                      S.S.S.S.S.S.S.b.b.8 E `..Xi.Y $.{ x b.S.S.S.S.S.                              ",
"                      S.S.S.S.S.S.S.S.x W <._.:XL.q.{ -.j A.S.S.S.S.S.                              ",
"                      S.S.S.S.S.S.A.N ] 3.L _.,X~.<.q.T 6 A.S.S.S.S.S.                              ",
"                      S.S.S.S.S.S.N ] r.T.T.}.,X_.<.q.r.T G.S.S.S.S.S.                              ",
"                      S.S.S.S.A.y o.3.d.#X+X:X,X Xi.q.r.$.y A.S.S.S.                                ",
"                        S.S.S.A.y $.<.h.*X>X,X,X=Xh.<.r.o.y A.S.S.S.                                ",
"                          S.S.A.y o.3.h.oX[.,X,X*Xh.<.r.J S.S.S.S.                                  ",
"                            S.S.S.N ] a.E.'.,X,X=Xh.3.] x b.S.S.S.                                  ",
"                              S.S.A.n q.L ~.,X,X Xi.` c A.S.S.S.                                    ",
"                                  S.G.V Y f.XX,X_.( c A.S.                                          ",
"                                                                                                    "
};
