/* XPM */
static char *_9b9a2b1020b4b31b1fc1f2e1c214ab4pPWm5mY44DRVFJ2W[] = {
/* columns rows colors chars-per-pixel */
"50 50 203 2 ",
"   c None",
".  c #111A2D",
"X  c #121A2D",
"o  c #131A2D",
"O  c #131B2D",
"+  c #141B2E",
"@  c #151C2E",
"#  c #161C2E",
"$  c #171D2E",
"%  c #181D2E",
"&  c #1D1F30",
"*  c #1E1F30",
"=  c #202030",
"-  c #212031",
";  c #222131",
":  c #232131",
">  c #242131",
",  c #262232",
"<  c #272332",
"1  c #2A2433",
"2  c #2E2634",
"3  c #2F2634",
"4  c #3A2A37",
"5  c #422D39",
"6  c #452F39",
"7  c #4B313B",
"8  c #51333C",
"9  c #673C41",
"0  c #683C42",
"q  c #724044",
"w  c #744144",
"e  c #794346",
"r  c #7E4547",
"t  c #804647",
"y  c #B06B4D",
"u  c #B16B4D",
"i  c #B06A4E",
"p  c #B16C4D",
"a  c #B26D4D",
"s  c #B36E4C",
"d  c #B46F4C",
"f  c #B5704B",
"g  c #B5714B",
"h  c #B6714B",
"j  c #B6724B",
"k  c #B7724B",
"l  c #B5704C",
"z  c #BA7549",
"x  c #BA7649",
"c  c #BB7749",
"v  c #B9744A",
"b  c #B9754A",
"n  c #BD7948",
"m  c #BC7849",
"M  c #C07C47",
"N  c #C17C47",
"B  c #C27D46",
"V  c #C27D47",
"C  c #C27E46",
"Z  c #C37F46",
"A  c #D3913F",
"S  c #D3923F",
"D  c #D4933F",
"F  c #D4943E",
"G  c #D5953E",
"H  c #D4943F",
"J  c #D5963E",
"K  c #D6983D",
"L  c #D7993D",
"P  c #D79A3D",
"I  c #D99C3C",
"U  c #DCA23A",
"Y  c #DCA33A",
"T  c #DDA539",
"R  c #DEA539",
"E  c #DEA639",
"W  c #DFA838",
"Q  c #E0AA37",
"!  c #E1AB37",
"~  c #E3AF36",
"^  c #E7B633",
"/  c #E7B733",
"(  c #E5B334",
")  c #E5B335",
"_  c #E5B434",
"`  c #E6B434",
"'  c #E6B534",
"]  c #E8B833",
"[  c #E9BB32",
"{  c #EABB32",
"}  c #EABD31",
"|  c #EABC32",
" . c #ECBF31",
".. c #FFE21F",
"X. c #EEC32F",
"o. c #EFC52F",
"O. c #F0C62E",
"+. c #F0C72E",
"@. c #F1C92D",
"#. c #F1CA2D",
"$. c #F2CA2D",
"%. c #F3CE2C",
"&. c #F4CE2C",
"*. c #FBDB27",
"=. c #FBDC27",
"-. c #FCDD25",
";. c #FDDE26",
":. c #FDDF26",
">. c #F6D22A",
",. c #F6D22B",
"<. c #F7D42A",
"1. c #F8D629",
"2. c #F8D729",
"3. c #F9D729",
"4. c #F9D829",
"5. c #FADA28",
"6. c #FADB28",
"7. c #FBDB28",
"8. c #FFE220",
"9. c #FFE221",
"0. c #FFE321",
"q. c #FFE322",
"w. c #FFE323",
"e. c #FFE324",
"r. c #FFE325",
"t. c #FDE026",
"y. c #FEE126",
"u. c #FFE424",
"i. c #FFE524",
"p. c #FFE425",
"a. c #FFE525",
"s. c #FFE42E",
"d. c #FFE430",
"f. c #FFE531",
"g. c #FFE537",
"h. c #FFE538",
"j. c #FFE639",
"k. c #FFE63A",
"l. c #C58145",
"z. c #C78344",
"x. c #C68245",
"c. c #C78345",
"v. c #C48046",
"b. c #CA8643",
"n. c #CB8743",
"m. c #CC8743",
"M. c #C88444",
"N. c #C98444",
"B. c #CF8A41",
"V. c #CF8B41",
"C. c #CC8842",
"Z. c #CD8842",
"A. c #CD8942",
"S. c #CC8843",
"D. c #CE8942",
"F. c #CE8A42",
"G. c #CF8A42",
"H. c #CF8B42",
"J. c #D08B41",
"K. c #D08C41",
"L. c #D18C41",
"P. c #D08D41",
"I. c #D18D41",
"U. c #D28F40",
"Y. c #D29040",
"T. c #FFE743",
"R. c #FFE746",
"E. c #FFE84B",
"W. c #FFE84F",
"Q. c #FFEB64",
"!. c #FFEC6C",
"~. c #FFED71",
"^. c #FFEE79",
"/. c #FFEE7C",
"(. c #FFEF81",
"). c #FFEF85",
"_. c #FFEF86",
"`. c #FFF088",
"'. c #FFF089",
"]. c #FFF192",
"[. c #FFF193",
"{. c #FFF194",
"}. c #FFF195",
"|. c #FFF298",
" X c #FFF29C",
".X c #FFF3A2",
"XX c #FFF4AC",
"oX c #FFF6B5",
"OX c #FFF6BD",
"+X c #FFF7C4",
"@X c #FFF8C5",
"#X c #FFF9CD",
"$X c #FFFBDE",
"%X c #FFFBE2",
"&X c #FFFBE3",
"*X c #FFFCEA",
"=X c #FFFCEB",
"-X c #FFFDEC",
";X c #FFFDF2",
":X c #FFFDF3",
">X c #FFFEF3",
",X c #FFFEF6",
"<X c white",
/* pixels */
"                                                                                                    ",
"                                                                                                    ",
"                                                                                                    ",
"                                                    X X X                                           ",
"                                              # * 1 7 8 4 - % #                                     ",
"                                            # + 5 w r t e 9 - # #                                   ",
"                                          # # # - > 3 3 > > % # #                                   ",
"                                          # #     > 0 q -                                           ",
"                                          #   # # # > 6 * #                                         ",
"                                                  + X     +                                         ",
"                                                                                                    ",
"                                              K.K.K.K.J.J.K.                                        ",
"                                          K.G.K.F F F F F K.G.G.K.                                  ",
"                                        J.K.R | 1.5.5.5.1.{ { R K.K.                                ",
"                                      J.D o.r.i.i.i.i.i.i.i.i.=.R G.K.                              ",
"                                    K.K.{ i.i.i.i.i.r.r.r.r.i.i.#.Y.K.K.                            ",
"                                  K.K.D %.5.1.{ / #.r.r.i.r.5.5.1.F J.K.                            ",
"                                  K.K.K.F F F K.G.D #.r.| ) L F Y S K.K.K.                          ",
"                                  K.K.    J.J.K.K.G.) >.D G.J.J.G.K.K.K.K.                          ",
"                                            K.K.G.G.S F K.K.K.K.K.      f                           ",
"                                              G.v v Z M.G.Z G.K.        p p                         ",
"                                    p p       K.l.p i Z G.d Z             p                         ",
"                                    p p         G.v p l.G.v l.                                      ",
"                                                K.Z Z Y.K.G.K.                                      ",
"                                                K.G.G.! L K.K.                                      ",
"                                                K.K.K.| ' G.K.K.                                    ",
"                                              K.K.J.F 1.| J.K.K.K.                                  ",
"                                            K.K.K.G.L =.5.L J.K.K.                                  ",
"                                          G.G.K.K.K.o.r.i.{ J.K.K.K.K.                              ",
"                                      K.l.f Z K.G.! r.q.i.1.F ~ R G.K.K.K.K.                        ",
"                                  K.K.K.M.Z G.F ! =.r.W.f.r.X.~ O.D J.K.K.K.K.K.                    ",
"                                K.G.G.K.K.F { 1.;.i.q.`.!.q.;.&.r.O.D J.K.K.G.G.K.                  ",
"                              G.l.f Z K.G./ i.i.r.q.k.+X{.q.r.i.r.i.o.K.G.Z f v Z G.K.              ",
"                            G.m p i Z J.R =.i.q.f.s.`.<XOXs.r.r.;.>.r.W G.v i p i Z K.              ",
"                          K.l.p i f m.F #.i.r.k.oX/.|.<X-XR.q.r.r. .' Y J.G.v p p f G.K.            ",
"                        K.G.v i p Z G.) i.r.q.{.#X_.=X<X<X].r.r.i.5.Y G.K.G.n.f p d n.K.            ",
"                        K.G.d p d n.Y.#.i.q.T.%X:X:X<X<X<X$Xg.q.r.i.#.K.K.Z m m i p Z K.            ",
"                        K.G.d i v G.L *.i.q.`.<X<X<X<X<X<X,X~.r.r.r.r.R J.n.f Z p i Z K.            ",
"                      K.K.G.d i Z J.' r.r.q._.XX:X<X<X<X<X<X%XT.q.r.i.#.Y.G.l.n.l i Z K.            ",
"                      K.K.G.d i Z J.{ i.r.q.^.(.:X<X<X<X<X<X<X`.q.r.i.5.F J.K.G.d v M.K.            ",
"                        K.G.m p Z J.{ i.r.r.E..X<X<X<X<X<X<X<X].q.r.i.5.F J.K.G.Z G.K.K.            ",
"                        K.K.G.l.M.G.{ i.r.r...].<X<X<X<X<X<X<X].q.r.i.5.F J.K.K.K.K.K.K.            ",
"                        K.K.K.K.K.G.' i.r.r.q.`.<X<X<X<X<X<X<X].q.r.i.5.F J.K.K.K.K.K.              ",
"                          K.K.K.K.J.F %.i.r.q.R.=X<X<X<X<X<X<X].q.r.i.5.F J.K.K.K.K.                ",
"                            K.K.K.K.D >.i.r.r.k.$X<X<X<X<X<X<X{.q.r.i.5.F J.K.K.K.                  ",
"                              K.K.K.K.{ i.i.i.r.].<X<X<X<X<X=XQ.q.r.1./ Y.K.K.K.                    ",
"                                  K.J.F ) { <.;.k.@X<X<X<X<X Xq.;.| L J.K.K.                        ",
"                                      J.G.J.I                                                       ",
"                                                                                                    ",
"                                                                                                    "
};
