/* XPM */
static char *_eb06e0a24964486e329cebb8aa1deeeSC5fijtOSdivIaiE[] = {
/* columns rows colors chars-per-pixel */
"50 50 191 2 ",
"   c None",
".  c #8A494A",
"X  c #8B4A4A",
"o  c #8D4B4A",
"O  c #8E4D4A",
"+  c #8F4D4A",
"@  c #904F4A",
"#  c #93514B",
"$  c #93524B",
"%  c #99574B",
"&  c #A35F4C",
"*  c #A46248",
"=  c #AC674D",
"-  c #B16E49",
";  c #B06B4D",
":  c #B06B4E",
">  c #B16C4D",
",  c #B26D4D",
"<  c #B36E4C",
"1  c #B36F4C",
"2  c #B46F4C",
"3  c #B5704B",
"4  c #B5714B",
"5  c #B6724B",
"6  c #B7724B",
"7  c #B5704C",
"8  c #B8734A",
"9  c #BA7549",
"0  c #BA7649",
"q  c #BB7649",
"w  c #B9744A",
"e  c #BA754A",
"r  c #BC7749",
"t  c #BF7A48",
"y  c #C07B47",
"u  c #C07C47",
"i  c #C17C47",
"p  c #C17D47",
"a  c #C27D46",
"s  c #C27D47",
"d  c #C37F46",
"f  c #C47F46",
"g  c #D1913F",
"h  c #D3913F",
"j  c #D2923F",
"k  c #D2933F",
"l  c #D3933F",
"z  c #D4933F",
"x  c #D4943E",
"c  c #D5943E",
"v  c #D5953E",
"b  c #D4943F",
"n  c #D5963E",
"m  c #D6983D",
"M  c #D7983D",
"N  c #D7993D",
"B  c #D79A3D",
"V  c #D99D3B",
"C  c #DEA536",
"Z  c #DCA23A",
"A  c #DDA539",
"S  c #DEA539",
"D  c #DEA638",
"F  c #DEA738",
"G  c #DFA738",
"H  c #DEA639",
"J  c #E0AA37",
"K  c #E1AA37",
"L  c #E1AB37",
"P  c #E7B733",
"I  c #E5B334",
"U  c #E5B235",
"Y  c #E6B434",
"T  c #E8B833",
"R  c #EABC32",
"E  c #EDC32F",
"W  c #EEC32F",
"Q  c #EFC52F",
"!  c #EFC62E",
"~  c #F0C62E",
"^  c #F0C72E",
"/  c #F1C92D",
"(  c #F1C82E",
")  c #F3CD2C",
"_  c #FAD927",
"`  c #FBDB27",
"'  c #FBDC27",
"]  c #FDDF26",
"[  c #FCDE27",
"{  c #F5D02B",
"}  c #F6D12B",
"|  c #F6D32A",
" . c #F8D529",
".. c #F8D629",
"X. c #F9D729",
"o. c #F9D829",
"O. c #FAD928",
"+. c #FADA28",
"@. c #FBDB28",
"#. c #FFE221",
"$. c #FFE321",
"%. c #FDE022",
"&. c #FFE322",
"*. c #FFE323",
"=. c #FFE423",
"-. c #FFE523",
";. c #FDE025",
":. c #FFE324",
">. c #FFE325",
",. c #FDE026",
"<. c #FEE026",
"1. c #FFE424",
"2. c #FFE524",
"3. c #FFE425",
"4. c #FFE624",
"5. c #FFE527",
"6. c #FFE328",
"7. c #FFE42D",
"8. c #FFE533",
"9. c #FCE03B",
"0. c #FFE538",
"q. c #FFE63A",
"w. c #FFE63B",
"e. c #FFE63C",
"r. c #FFE63D",
"t. c #C48043",
"y. c #C58145",
"u. c #C68145",
"i. c #C78344",
"p. c #C68245",
"a. c #C78245",
"s. c #C78345",
"d. c #CA8643",
"f. c #CB8643",
"g. c #CC8743",
"h. c #C88344",
"j. c #C88444",
"k. c #C98444",
"l. c #CC8941",
"z. c #CD8941",
"x. c #CE8940",
"c. c #CF8A41",
"v. c #CF8B41",
"b. c #CC8842",
"n. c #CD8842",
"m. c #CD8942",
"M. c #CC8843",
"N. c #CE8942",
"B. c #CF8942",
"V. c #CE8A42",
"C. c #CF8A42",
"Z. c #CF8B42",
"A. c #CF8C41",
"S. c #D08B41",
"D. c #D08C41",
"F. c #D08D41",
"G. c #D18D41",
"H. c #D28F40",
"J. c #D28E41",
"K. c #D19140",
"L. c #D29040",
"P. c #FFE742",
"I. c #FFE746",
"U. c #FFEA5A",
"Y. c #EAC573",
"T. c #FFEC67",
"R. c #FFEC69",
"E. c #FFF08B",
"W. c #FFF192",
"Q. c #FFF193",
"!. c #FFF393",
"~. c #FFF194",
"^. c #FFF297",
"/. c #FFF29B",
"(. c #FFF5B2",
"). c #FFF6BA",
"_. c #FFF6BC",
"`. c #FFF8C9",
"'. c #FFF9D2",
"]. c #FFFBDE",
"[. c #FFFBDF",
"{. c #FFFBE1",
"}. c #FFFCE7",
"|. c #FFFCE8",
" X c #FFFCE9",
".X c #FCF9F6",
"XX c #FFFEF5",
"oX c #FFFEF7",
"OX c #FFFEFA",
"+X c #FFFFFD",
"@X c white",
/* pixels */
"                                                                                                    ",
"                                                                                                    ",
"                                                                                                    ",
"                                                >                                                   ",
"                                                >                                                   ",
"                                                                                                    ",
"                                                                                                    ",
"                                                                                                    ",
"                                            O # # #                                                 ",
"                                        . o & = = = % . .                                           ",
"                                      . . @ - i i y * O . .                                         ",
"                                          t.z.G.G.G.z.                                              ",
"                                        G.G.G.G.S.S.G.G.G.G.                                        ",
"                                      G.G.G.z.G.b b b L.z.G.G.                                      ",
"                                  G.G.G.S.G.D R ..+.+./ I b S.G.                                    ",
"                                  G.G.S.z ! ,.3.3.3.3.3.3.! z S.G.                                  ",
"                                G.G.S.z ! 3.3.,.,.,.3.3.3.3.T G.G.G.                                ",
"                              G.G.G.L.~ 3.3.] ] ,.,.,.] ,.3.+.b S.G.                                ",
"                              G.G.G.h P | R D T 3.,.,.T D T I h G.G.                                ",
"                              G.G.G.G.G.z G.z.m ..3.+.m z.z.z.G.G.G.G.                              ",
"                                G.      S.G.G.S.R 3.+.b G.G.      G.                                ",
"                                        G.j.s.S.D ,...h f z.  ; >                                   ",
"                                  >     G.y > s.b ..L s.7 z.G.  > >                                 ",
"                                        G.s.> 7 h | b h.i z.G.    >                                 ",
"                                        G.s.> 2 h | m G.G.G.G.G.                                    ",
"                                      G.G.i ; 2 h +.Y z.z.z.G.G.                                    ",
"                                      G.G.i ; 2 h ` T g.4 i G.G.                                    ",
"                                      G.z.e ; e D ,./ A.> 4 z.G.G.                                  ",
"                                    G.G.s.> 4 d.T 3.+.b e > s.G.G.                                  ",
"                                  G.G.z.e 7 d.L./ 3.+.b y ; t G.G.G.                                ",
"                                G.G.G.z.2 i S.m ` 3.] D s.> 2 s.G.G.                                ",
"                              G.G.G.G.z.f z.L.! ,.,.3.T z.e ; e z.G.G.                              ",
"                              G.G.G.G.z.z.z.D ,.,.,.3./ L.j.e 4 z.G.G.G.                            ",
"                            G.G.G.G.s.4 i G./ 3.,.,.3.` m S.z.z.G.G.G.G.                            ",
"                            G.G.G.z.7 e z.L ,.,.6.q.6.,.! L.G.j.s.G.G.G.G.                          ",
"                          G.G.G.G.i > s.m +.3.,.e._.q.=.' m G.s.4 z.G.G.G.                          ",
"                          G.G.G.G.y 2 z.T 3.,.%.e.].R.%.,.I z.z.2 r z.G.G.                          ",
"                          G.G.G.G.s.8 L.+.3.,.%.T.OX~.8.3./ G.z.e 2 z.G.G.                          ",
"                          G.G.G.G.G.z.Z T ) 3.%.!.@X(._.q.,.D S.i > z.G.G.                          ",
"                          G.G.G.G.G.G.V z / 3.%./.@XXX|.I.=.R G.i r z.G.G.G.                        ",
"                          G.G.G.G.G.G.S.L ,.%.P.{.@X@X@XE.%...m z.z.G.G.G.G.                        ",
"                          G.G.G.G.G.S.m +.3.,.!.@X@X@X`.U.%.3.Y z.G.G.G.G.                          ",
"                          G.G.G.G.G.G.T 3.,.q.[.@X@X@X).7.,.3.T z.G.G.G.G.                          ",
"                            G.G.G.S.b ..3.%.e.|.@X@X@X|.e.%.3.T z.G.G.G.                            ",
"                            G.G.G.S.b ..3.%.e.}.@X@X@XXXT.%.3.T z.G.G.G.                            ",
"                              G.G.G.G.R 3.%.e.}.@X@X@X@X~.%.,.D z.G.G.                              ",
"                                G.G.z.D ,.=.e.|.@X@X@X@X!.%.W G.G.G.                                ",
"                                  G.G.G.W ` 9.'.@X@X@X.XY.C L.G.                                    ",
"                                                          z.                                        ",
"                                                                                                    "
};
