/* XPM */
static char *_186d5e0c96146b5da8d36b4052338ca7vkbEjYAo3brfVN3[] = {
/* columns rows colors chars-per-pixel */
"50 50 175 2 ",
"   c None",
".  c #161C2E",
"X  c #B06B4D",
"o  c #B16B4D",
"O  c #B16C4D",
"+  c #B26D4C",
"@  c #B26D4D",
"#  c #B36E4C",
"$  c #B46F4C",
"%  c #B5704B",
"&  c #B5714B",
"*  c #B6714B",
"=  c #B5704C",
"-  c #BA7649",
";  c #B8744A",
":  c #BA754A",
">  c #BD7948",
",  c #BE7948",
"<  c #BE7A48",
"1  c #BF7B48",
"2  c #C07B47",
"3  c #C07C47",
"4  c #C17C47",
"5  c #C17D47",
"6  c #C27D46",
"7  c #C37F46",
"8  c #CE873C",
"9  c #D3913F",
"0  c #D3933F",
"q  c #D4933F",
"w  c #D6973D",
"e  c #D5943E",
"r  c #D5953E",
"t  c #D4943F",
"y  c #D5963E",
"u  c #D6963E",
"i  c #D7983D",
"p  c #D7993D",
"a  c #D79A3C",
"s  c #D99D3C",
"d  c #DDA539",
"f  c #DEA539",
"g  c #DEA638",
"h  c #DEA738",
"j  c #DFA738",
"k  c #DEA639",
"l  c #E0AA37",
"z  c #E2AD36",
"x  c #E0A938",
"c  c #E7B633",
"v  c #E7B733",
"b  c #E5B235",
"n  c #E6B434",
"m  c #E8B833",
"M  c #E8B933",
"N  c #E9BB32",
"B  c #E9BB33",
"V  c #EABB32",
"C  c #EABC31",
"Z  c #EABC32",
"A  c #FFE21F",
"S  c #EFC52F",
"D  c #EFC62E",
"F  c #F1C92D",
"G  c #F0C82E",
"H  c #F1C82E",
"J  c #FADA24",
"K  c #FBDB27",
"L  c #FBDC27",
"P  c #FDDF26",
"I  c #FCDE27",
"U  c #F5D12B",
"Y  c #F7D529",
"T  c #F7D52A",
"R  c #F8D529",
"E  c #F8D629",
"W  c #F8D729",
"Q  c #F9D729",
"!  c #F9D829",
"~  c #FAD928",
"^  c #FADA28",
"/  c #FADB28",
"(  c #FBDB28",
")  c #EDC230",
"_  c #FFE221",
"`  c #FFE322",
"'  c #FFE323",
"]  c #FFE423",
"[  c #FFE324",
"{  c #FFE325",
"}  c #FDE026",
"|  c #FEE126",
" . c #FFE327",
".. c #FFE524",
"X. c #FFE425",
"o. c #FFE42D",
"O. c #FFE42E",
"+. c #FFE42F",
"@. c #FFE430",
"#. c #FFE531",
"$. c #FFE537",
"%. c #FFE638",
"&. c #FFE739",
"*. c #FFE63A",
"=. c #FFE63D",
"-. c #C58145",
";. c #C68145",
":. c #C68245",
">. c #C78245",
",. c #C78345",
"<. c #C48046",
"1. c #CC8743",
"2. c #CF8B41",
"3. c #CC8842",
"4. c #CD8842",
"5. c #CD8942",
"6. c #CC8843",
"7. c #CE8942",
"8. c #CE8A42",
"9. c #CF8A42",
"0. c #CF8B42",
"q. c #D08B41",
"w. c #D08C41",
"e. c #D08D41",
"r. c #D18D41",
"t. c #D18E40",
"y. c #D28F40",
"u. c #D29040",
"i. c #D29140",
"p. c #D6994B",
"a. c #DAA56B",
"s. c #E7BE71",
"d. c #FFE743",
"f. c #FFE748",
"g. c #FFEA5A",
"h. c #FFEA5C",
"j. c #FFED71",
"k. c #FFED72",
"l. c #FFED75",
"z. c #FFEF7F",
"x. c #FFEF84",
"c. c #FFF08C",
"v. c #FFF18E",
"b. c #FFF18F",
"n. c #F9E691",
"m. c #FFF192",
"M. c #FFF29D",
"N. c #FFF3A5",
"B. c #FFF5B0",
"V. c #FFF5B1",
"C. c #FFF6B7",
"Z. c #FFF6B9",
"A. c #FFF6BA",
"S. c #FFF7C1",
"D. c #FFF9CD",
"F. c #F4E5D5",
"G. c #FFF9D3",
"H. c #FFFDDF",
"J. c #FFFBE0",
"K. c #FFFBE1",
"L. c #FFFCE6",
"P. c #FFFCE7",
"I. c #FAF3ED",
"U. c #FFFCE8",
"Y. c #FFFCEA",
"T. c #FFFCEB",
"R. c #FFFDEB",
"E. c #FFFDEC",
"W. c #FFFDEE",
"Q. c #FFFDF0",
"!. c #FFFEF7",
"~. c #FFFEF8",
"^. c #FEFDFC",
"/. c #FFFFFC",
"(. c white",
/* pixels */
"                                                                                                    ",
"                                        . . .                                                       ",
"                                    . . . .     . .                                                 ",
"                                                                                                    ",
"                                                                                                    ",
"                                          O O O                                                     ",
"                                    O O X O = O O O O                                               ",
"                                  O O O - >.5.>.- O O O                                             ",
"                                O O $ >.5.r.r.r.5.$ O O                                             ",
"                              O O X 1 5.r.r.r.r.5.$ O O O                                           ",
"                            O O O O O * 1 4 4 4 - O O O O                                           ",
"                            O O O     O X X X X X O                                                 ",
"                              O           O O O O     O O                                           ",
"                                            O O O O O O O                                           ",
"                                            O O                                                     ",
"                                          O O O O                                                   ",
"                              O O O       O O O                                                     ",
"                                            O O                                                     ",
"                                              O O                                                   ",
"                                                O                                                   ",
"                                                                                                    ",
"                                                                                                    ",
"                                              r.r.                                                  ",
"                                              r.                                                    ",
"                                              q.r.                                                  ",
"                                            r.q r.                                                  ",
"                                            y G y                                                   ",
"                                          5.k Q y 5.                                                ",
"                                        r.q.Z { k 5.r.                                              ",
"                      r.            r.r.q.y Q X.Z 5.r.r.          r.r.r.r.r.                        ",
"                r.r.r.r.r.r.r.r.r.r.r.r.r.S { { K x r.r.r.r.r.r.q.q.r.r.r.r.r.                      ",
"              r.r.r.r.5.5.5.5.q.q.q.q.5.l { { { X.! y 5.q.q.r.r.y y r.5.r.r.r.r.                    ",
"            r.1.4 5.r.k M M k y y y p v K X.{ { { { S p y y u.z U Q Z k r.r.5.r.                    ",
"          r.5.* * 5.x L X.X.P ! ! ! ! { X.{ { { { { { ! Y z u.s ) X.X.L k 5.- >.r.                  ",
"          r.4 X 1 k L X.{ { { X.X.X.X.{ ' ' { { { { { X.P M M Y P { { X.Z 5.= 4 r.r.                ",
"          r.4 O >.M X.{ { { { { { { ' +.f.z.#.{ $.{ { { { X.X.X.{ { { X.Q y 1 - 5.r.                ",
"          r.4 $ 1.M X.{ { { { { { ' g.S.E.B.$.j.D.d.' ' ' { { { { { { X.! y 2 O 5.r.                ",
"        r.r.>.* 1.M X.{ { { { { { +.l.A.E.N.A.!.(.m.A h.v.&.' { { { { X.Q 9 - - 5.r.                ",
"          r.5.>.5.n { { { { { { +.B.L.L.(.(.(.(.(.Y.v.x.Q.C.#.{ { { { X.Z >.O 4 r.r.                ",
"          r.r.r.q.p K X.{ { { ' =.Y.(.(.(.(.(.(.(.(.(.J.G.M.#.{ { { { P k >.4 5.r.r.                ",
"          r.r.r.r.u.G X.{ { { ' =.Y.(.(.(.(.(.(.(.(.(.(.(.B.+.{ { { X.Q y r.r.r.r.r.                ",
"            r.r.r.5.k L X.{ { { &.J.(.(.(.(.(.(.(.(.(.(.(.Y.=.' { { { l r.r.r.r.r.                  ",
"            r.r.r.r.5.v X.{ { { { j.~.(.(.(.(.(.(.(.(.(.(.Y.=.' { X.G r.r.r.r.r.r.                  ",
"              r.r.r.q.y S { X.{ { +.v.Y.(.(.(.(.(.(.(.(.(.H.&.] X.L k 5.r.r.r.r.r.                  ",
"                r.r.r.q.r.l L X.X.{ K n.I.(.(.  (.  (.(.F.s.M Q ! v q.r.r.r.r.r.                    ",
"                  r.r.r.r.q.x Q G b p p.a.                8 q.y y 9 r.r.r.r.                        ",
"                    r.r.r.r.r.y 9 5.                                r.r.                            ",
"                                                                                                    ",
"                                                                                                    ",
"                                                                                                    "
};
