/* XPM */
static char *_7f7a5f327254970f1848780eb9c1ca6bFxuWw01TrYXJYcM[] = {
/* columns rows colors chars-per-pixel */
"50 50 196 2 ",
"   c None",
".  c #B06B4D",
"X  c #B16B4D",
"o  c #B16C4D",
"O  c #B26D4D",
"+  c #B36E4C",
"@  c #B36F4C",
"#  c #B46F4C",
"$  c #B56F4C",
"%  c #BF7B47",
"&  c #B5704B",
"*  c #B5714B",
"=  c #B6714B",
"-  c #B7724B",
";  c #BA7549",
":  c #BB7749",
">  c #B9744A",
",  c #B9754A",
"<  c #BA754A",
"1  c #BC7749",
"2  c #BD7848",
"3  c #BD7948",
"4  c #BD7849",
"5  c #BF7A48",
"6  c #BF7B48",
"7  c #C07B47",
"8  c #C07C47",
"9  c #C27D46",
"0  c #C27E46",
"q  c #C37E46",
"w  c #C37F46",
"e  c #C47F46",
"r  c #D3913F",
"t  c #D1923F",
"y  c #D2923F",
"u  c #D3933F",
"i  c #D4933F",
"p  c #D3943F",
"a  c #D4943D",
"s  c #D5953D",
"d  c #D4943E",
"f  c #D5943E",
"g  c #D5953E",
"h  c #D4943F",
"j  c #D4963E",
"k  c #D5963E",
"l  c #D6963E",
"z  c #D6973E",
"x  c #D7993D",
"c  c #D99E3B",
"v  c #DBA13A",
"b  c #DCA339",
"n  c #DDA539",
"m  c #DEA738",
"M  c #DEA639",
"N  c #DFA838",
"B  c #EBBD2F",
"V  c #E0AA37",
"C  c #E0A938",
"Z  c #E7B633",
"A  c #E7B733",
"S  c #E3B035",
"D  c #E4B035",
"F  c #E4B135",
"G  c #E5B335",
"H  c #E5B434",
"J  c #E6B434",
"K  c #E8B833",
"L  c #E8B933",
"P  c #E9BB32",
"I  c #EABB32",
"U  c #EABC31",
"Y  c #EABC32",
"T  c #ECBF31",
"R  c #FFE31D",
"E  c #EEC32F",
"W  c #EFC62E",
"Q  c #F3CC2B",
"!  c #F4CF2B",
"~  c #F1C92D",
"^  c #F1CA2D",
"/  c #F1C92E",
"(  c #F4CF2C",
")  c #FDDF23",
"_  c #FADA26",
"`  c #FADA27",
"'  c #FBDC27",
"]  c #FDDF26",
"[  c #F6D329",
"{  c #F6D32A",
"}  c #F7D42A",
"|  c #F8D629",
" . c #F8D729",
".. c #FADA28",
"X. c #FBDB28",
"o. c #FADB34",
"O. c #FADC34",
"+. c #FFE220",
"@. c #FFE221",
"#. c #FFE321",
"$. c #FFE322",
"%. c #FFE323",
"&. c #FFE420",
"*. c #FFE421",
"=. c #FFE423",
"-. c #FFE523",
";. c #FFE324",
":. c #FFE325",
">. c #FDE026",
",. c #FEE026",
"<. c #FFE327",
"1. c #FFE424",
"2. c #FFE524",
"3. c #FFE425",
"4. c #FFE525",
"5. c #FFE624",
"6. c #FFE42C",
"7. c #FFE42F",
"8. c #FFE430",
"9. c #FFE639",
"0. c #FFE63A",
"q. c #FFE63B",
"w. c #FFE73B",
"e. c #FFE63C",
"r. c #FFE63D",
"t. c #FFE73E",
"y. c #FFE63F",
"u. c #C68245",
"i. c #C78345",
"p. c #CA8543",
"a. c #CA8643",
"s. c #CB8743",
"d. c #C88344",
"f. c #C88444",
"g. c #C98444",
"h. c #CF8B41",
"j. c #CC8842",
"k. c #CD8942",
"l. c #CC8843",
"z. c #CE8942",
"x. c #CE8A42",
"c. c #CF8A42",
"v. c #D08B40",
"b. c #D08B41",
"n. c #D08C41",
"m. c #D08D41",
"M. c #D18D41",
"N. c #D18E40",
"B. c #D28F40",
"V. c #D29040",
"C. c #E0AC44",
"Z. c #EABF4A",
"A. c #F8D942",
"S. c #FFE743",
"D. c #FFE744",
"F. c #FFEC67",
"G. c #FFEC68",
"H. c #FFEC6C",
"J. c #FFEE76",
"K. c #FFEE7D",
"L. c #FFEF7D",
"P. c #FEEC7E",
"I. c #FFF087",
"U. c #FFF088",
"Y. c #FFF08C",
"T. c #FFF192",
"R. c #FFF193",
"E. c #FFF194",
"W. c #FFF29C",
"Q. c #FFF29D",
"!. c #FFF39F",
"~. c #FFF4AC",
"^. c #FFF6B7",
"/. c #FFF7BD",
"(. c #FFF7BE",
"). c #FFF7C0",
"_. c #FFF8C5",
"`. c #FFF8C8",
"'. c #FFF8CB",
"]. c #FFF9CE",
"[. c #FFF9CF",
"{. c #FFFAD9",
"}. c #FFFBDE",
"|. c #FFFBE1",
" X c #FFFCE6",
".X c #FFFCE7",
"XX c #FFFCE8",
"oX c #FFFEE9",
"OX c #FFFDEA",
"+X c #FFFDEC",
"@X c #FFFEF5",
"#X c #FFFEF6",
"$X c #FFFEF7",
"%X c #FFFEFA",
"&X c #FFFFFC",
"*X c white",
/* pixels */
"                                                                                                    ",
"                                                                                                    ",
"                                            o o o & o o                                             ",
"                                          o o < i.a.2 o o                                           ",
"                                        o o . < 7 & o o o                                           ",
"                                            o o . o o                                               ",
"                                    o o     o o o o o o   o o                                       ",
"                                                o o                                                 ",
"                                                o o                                                 ",
"                                                  o                                                 ",
"                                                  o                                                 ",
"                                                                                                    ",
"                                    o       o o o o o o o                                           ",
"                                          o o o . o o . o o                                         ",
"                                        o o o 2 2 & & % 1 o                                         ",
"                                              M.q o o 2                                             ",
"                                              M.i.& < q h.                                          ",
"                                              M.M.h.h.M.M.M.                                        ",
"                                            M.h.h.V.h h M.M.M.M.                                    ",
"                                        M.M.V.m L / ..| m h.M.M.                                    ",
"                                      M.M.M.Z ;.5.5.#.5.( v b.M.M.                                  ",
"                                      M.b.h | 5.#.7.0.;.5.L h.M.M.                                  ",
"                                    M.M.h.m ] ;.0.^.{.D.-.L h.M.M.                                  ",
"                                    M.M.h.L 5.#.P.oXoXP.#.J h.M.M.                                  ",
"                                      M.b.v / ` o.A.Z.C.S h M.M.M.                                  ",
"                                      M.M.h.V.h h h b.h.h.M.M.M.M.                                  ",
"                                    M.M.M.M.M.b.h.h.M.M.b.b.M.M.M.                                  ",
"                                M.M.M.M.M.h.h.M.h h b.b.h h M.M.M.M.M.                              ",
"                              M.M.M.M.M.M.m L L | | L L | | Z V.M.M.M.M.M.                          ",
"                            M.M.f.d.M.V.E ;.5.5.5.5.-.5.5.5.;.V M.V.M.M.M.                          ",
"                          M.M.f.< i.M.x ' 5.;.;.;.0.P.8.;.;.5.| c C h.M.M.M.                        ",
"                          M.h.< & h.h.J ;.;.;.;.#.U.%XF.#.;.;.] D T h M.M.M.M.                      ",
"                        M.M.a.o 2 a.M.L 5.;.;.7.0.).*XW.#.;.;.5.[ ] J h.M.M.M.                      ",
"                        M.M.q o < 2 r | 5.;.7.Y.W.*X*X|.S.#.;.;.5.5.L h.M.M.M.                      ",
"                      M.M.M.q . o # r ..5.#.G.`.`.*X*X*XI.#.;.;.;.;.D b.M.M.M.                      ",
"                      M.M.M.q o < & r ..5.7./.*X*X*X*X*X/.7.;.;.5.Y V.f.f.M.M.                      ",
"                        M.M.a.# 2 e p ..-.r..X+X*X*X*X*XoXr.#.;.5.Z h.< 7 M.M.M.                    ",
"                        M.M.h.# & h.h } [ r.].T.@X*X*X*X@XF.#.;.5.L a.& i.M.M.                      ",
"                        M.M.h.& # h.h ! B r.].~.*X*X*X*X*XE.#.;.;.J 2 & h.M.M.                      ",
"                        M.M.M.q # h.r L b O.J.W.*X*X*X*X*XT.#.5...h # q M.M.M.                      ",
"                        M.M.M.h.q h.M.M.h | R T.*X*X*X*X*XE.#.5...p q h.M.M.M.                      ",
"                          M.M.M.M.M.M.M.b.Y -.E.*X*X*X*X@XF.#.5./ V.M.M.M.M.                        ",
"                          M.M.M.M.M.M.M.h.m ) F.@X*X*X*X.X0.#.] m h.M.M.M.                          ",
"                            M.M.M.M.M.M.b.x ` 0.oX*X*X*XoXr.-.| h b.M.M.M.                          ",
"                              M.M.M.M.M.h.D ;.7./.*X*X*X}.0.-.L M.M.M.M.                            ",
"                              M.M.M.M.M.M.h W #.I.*X*X*XW.-./ i b.M.M.                              ",
"                                  M.M.M.M.h.h Q 0._.*X@XH.) N h.M.M.                                ",
"                                                                                                    ",
"                                                                                                    ",
"                                                                                                    "
};
