/* XPM */
static char *e7ebcf0b5b5345079632f80c0e582d8eN6wsoMuwnA4VyD33[] = {
/* columns rows colors chars-per-pixel */
"50 50 218 2 ",
"   c None",
".  c #151B2E",
"X  c #151C2E",
"o  c #161C2E",
"O  c #191D2F",
"+  c #1B1E2F",
"@  c #212031",
"#  c #222131",
"$  c #232131",
"%  c #272332",
"&  c #302634",
"*  c #332735",
"=  c #402C38",
"-  c #4C313B",
";  c #50333C",
":  c #51333C",
">  c #52333C",
",  c #623A40",
"<  c #633A41",
"1  c #7A4346",
"2  c #7F4547",
"3  c #814648",
"4  c #834748",
"5  c #844748",
"6  c #854849",
"7  c #864849",
"8  c #8A4A4A",
"9  c #8B4A4A",
"0  c #8C4A4A",
"q  c #8D4B4A",
"w  c #915049",
"e  c #925149",
"r  c #935149",
"t  c #94524A",
"y  c #955449",
"u  c #AD6B46",
"i  c #B06B4D",
"p  c #B16C4D",
"a  c #B26D4D",
"s  c #B36E4C",
"d  c #B5704B",
"f  c #B5714B",
"g  c #B4704C",
"h  c #B5704C",
"j  c #BA7649",
"k  c #BB7749",
"l  c #B9754A",
"z  c #BA754A",
"x  c #BC7749",
"c  c #BF7A48",
"v  c #C07C47",
"b  c #C17C47",
"n  c #C17D47",
"m  c #C27D46",
"M  c #C27E46",
"N  c #C37E46",
"B  c #C37F46",
"V  c #C47F46",
"C  c #D3913F",
"Z  c #D4933F",
"A  c #D4943D",
"S  c #D6973D",
"D  c #D4943E",
"F  c #D5943E",
"G  c #D5953E",
"H  c #D4943F",
"J  c #D5963E",
"K  c #D6963E",
"L  c #D6983D",
"P  c #D7983D",
"I  c #D7993D",
"U  c #D79A3D",
"Y  c #D99E3B",
"T  c #D89C3C",
"R  c #D99D3C",
"E  c #DBA13A",
"W  c #DDA539",
"Q  c #DFA738",
"!  c #DEA639",
"~  c #E0AA37",
"^  c #E1AB37",
"/  c #E0A938",
"(  c #E7B731",
")  c #E7B633",
"_  c #E4B235",
"`  c #E5B335",
"'  c #E5B434",
"]  c #E6B434",
"[  c #E6B534",
"{  c #E8B733",
"}  c #E8B833",
"|  c #E8B933",
" . c #EABB32",
".. c #EABC31",
"X. c #EABD31",
"o. c #ECBF31",
"O. c #FFE21F",
"+. c #EFC52F",
"@. c #EFC62E",
"#. c #F0C62E",
"$. c #F0C72E",
"%. c #F4CF2B",
"&. c #F1C92D",
"*. c #F1CA2D",
"=. c #F2CA2D",
"-. c #F1C92E",
";. c #F3CD2C",
":. c #FBDB27",
">. c #FBDC27",
",. c #FDDF26",
"<. c #FCDE27",
"1. c #F5D02B",
"2. c #F5D12B",
"3. c #F6D22B",
"4. c #F7D42A",
"5. c #F8D628",
"6. c #F8D629",
"7. c #F8D729",
"8. c #F9D729",
"9. c #F9D829",
"0. c #FADA28",
"q. c #FADB28",
"w. c #FBDB28",
"e. c #FFE220",
"r. c #FFE221",
"t. c #FFE321",
"y. c #FFE322",
"u. c #FFE323",
"i. c #FFE423",
"p. c #FFE324",
"a. c #FFE225",
"s. c #FFE325",
"d. c #FDE026",
"f. c #FEE126",
"g. c #FFE326",
"h. c #FFE424",
"j. c #FFE524",
"k. c #FFE425",
"l. c #FFE525",
"z. c #FFE42D",
"x. c #FFE42E",
"c. c #FFE42F",
"v. c #FFE430",
"b. c #FFE536",
"n. c #FFE63A",
"m. c #FCE13E",
"M. c #FFE63D",
"N. c #C68242",
"B. c #C58144",
"V. c #C58045",
"C. c #C58145",
"Z. c #C68245",
"A. c #C78245",
"S. c #C88442",
"D. c #C98542",
"F. c #CA8543",
"G. c #C88444",
"H. c #C98444",
"J. c #CF8A41",
"K. c #CF8B41",
"L. c #CC8842",
"P. c #CD8842",
"I. c #CD8942",
"U. c #CC8843",
"Y. c #CF8942",
"T. c #CE8A42",
"R. c #CF8A42",
"E. c #CE8C41",
"W. c #D08B41",
"Q. c #D08C41",
"!. c #D08D41",
"~. c #D18D41",
"^. c #D08E40",
"/. c #D08E41",
"(. c #D28F40",
"). c #D19140",
"_. c #D29040",
"`. c #D39040",
"'. c #EAC049",
"]. c #FFE742",
"[. c #FFE743",
"{. c #FFE746",
"}. c #FCE34B",
"|. c #FFEA5E",
" X c #FFEB66",
".X c #FFEE7C",
"XX c #FFF087",
"oX c #FFF089",
"OX c #FFF08C",
"+X c #FFF190",
"@X c #FFF192",
"#X c #FFF193",
"$X c #FFF195",
"%X c #FFF297",
"&X c #FFF298",
"*X c #FFF29C",
"=X c #FFF39F",
"-X c #FFF4A6",
";X c #FFF5AF",
":X c #FFF7BD",
">X c #FFF7BE",
",X c #FFF7C0",
"<X c #FFF8C8",
"1X c #FFF8CB",
"2X c #FFFAD6",
"3X c #FFFBDC",
"4X c #FFFBDF",
"5X c #FFFBE0",
"6X c #FFFBE2",
"7X c #FFFCE7",
"8X c #FFFCE8",
"9X c #FFFEE8",
"0X c #FFFDEC",
"qX c #FFFDED",
"wX c #FFFEF7",
"eX c #FFFEF8",
"rX c #FFFFFD",
"tX c white",
/* pixels */
"                                                                                                    ",
"                                                                                                    ",
"                                                                                                    ",
"                                                    o o                                             ",
"                                              o o o o o o o                                         ",
"                                            . o @ @ @ o o o o                                       ",
"                                          + % ; 1 2 1 ; @ o . +                                     ",
"                                        @ , 3 9 q q q 7 * + = ,                                     ",
"                                      - ; q q 9 9 9 9 7 ; @ * 3                                     ",
"                                      5 5 q 9 9 9 9 9 9 9     3 q                                   ",
"                                              9 w w w w t                                           ",
"                                            y u N.S.S.S.B.l                                         ",
"                                        Q.L.S.L.Q.H H H Q.L.H.                                      ",
"                                      Q.Q.W.H ] } 6.0.6.~ Q.Q.Q.                                    ",
"                                    Q.Q.Q.H +.k.k.k.k.k.d.+.H W.Q.                                  ",
"                                  Q.Q.W.H 4.d.k.k.k.d.d.d.k.} W.Q.Q.                                ",
"                                Q.Q.Q._.+.d.d.d.d.d.k.k.k.k.6.P W.Q.Q.                              ",
"                                Q.Q.Q._.-.k.k.k.k.d.k.k.d.d.k.] L.Q.Q.                              ",
"                                Q.Q.Q.L._ >.-.) -.k.k.q.,.k.d.Q L.Q.Q.Q.                            ",
"                                Q.      C H _.L.P 0.$.P Q } _ _.Q.Q.Q.Q.                            ",
"                                          W.Q.W.H 1.P L.L.L.L.Q.Q.Q.Q.Q.                            ",
"                                  p p p   Q.Q.Q.H 1.H W.Q.Q.Q.Q.      Q.                            ",
"                                  p p i   Q.L.V H 1.P W.Q.Q.Q.                                      ",
"                                        L.Q.B.h _.6.] L.Q.Q.Q.    p p                               ",
"                                        Q.Q.v p L.....Q.Q.Q.Q.      p                               ",
"                                        Q.Q.c l Q.-.6.H L.L.Q.Q.                                    ",
"                                      Q.Q.L.d v Q d.d.Q v v Q.Q.                                    ",
"                                    Q.Q.Q.v h E.-.k.k.} c h L.Q.Q.                                  ",
"                                  Q.Q.Q.Q.H.B.H 6.k.k.{ B.p v Q.Q.                                  ",
"                                  Q.Q.Q.Q.Q.Q.H ;.k.k.-.Q.v l L.Q.Q.                                ",
"                              Q.Q.Q.Q.Q.Q.L.Z +.d.d.k.:.R Q.L.Q.Q.Q.Q.                              ",
"                            Q.Q.Q.Q.Q.Q.Q.H +.k.d.u.u.d.0./ Q.Q.Q.Q.Q.Q.                            ",
"                          Q.Q.L.v H.Q.L.H 4.k.k.i.|.|.u.k.>.Q L.Q.Q.Q.Q.Q.Q.                        ",
"                        Q.Q.L.x p B.Q.Z +.d.d.d.u.$X&Xu.d.k.-.Z W.L.L.Q.Q.Q.Q.                      ",
"                        Q.Q.B.p l L.Q.} k.d.d.b.v.,X@Xu.d.d.k.$.H v x L.Q.Q.Q.Q.                    ",
"                      Q.Q.Q.c i v Q.P 0.k.u. X<X.XeX:Xz.d.d.,.>.] S.h B.Q.Q.Q.Q.                    ",
"                      Q.Q.L.d d L.Q.} k.d.u.*X2X<XtXwX Xu.k.o.Y ~ L.l d L.Q.Q.Q.Q.                  ",
"                      Q.Q.L.p c Q.P 6.k.u.].6XqXtXtXtX:Xz.d.0.Q R _.L.V L.Q.Q.Q.Q.                  ",
"                      Q.Q.L.x v W.] k.d.u.OX,X;XtXtXtXqX{.u.k.-.Z Q.Q.Q.Q.Q.Q.Q.Q.                  ",
"                      Q.Q.Q.L.L.L.} k.d.u.oX-X3XtXtXtXtX@Xd.d.d.Q L.Q.Q.Q.Q.Q.Q.Q.                  ",
"                      Q.Q.Q.Q.Q.L.] d.d.d.z.$XtXtXtXtXtX6X].u.k.%.E W.Q.Q.Q.Q.Q.                    ",
"                      Q.Q.Q.Q.Q.W.P 0.k.d.O.@XtXtXtXtXtXtX@Xd.d.k.] L.Q.Q.Q.Q.Q.                    ",
"                        Q.Q.Q.Q.W.H 6.k.d.z.:XtXtXtXtXtXtX4Xn.u.0.P W.Q.Q.Q.Q.Q.                    ",
"                        Q.Q.Q.Q.Q.Q.} k.d.n.6XtXtXtXtXtXtX9XM.u.0.H W.Q.Q.Q.Q.                      ",
"                          Q.Q.Q.Q.W.P 6.k.d.*XtXtXtXtXtXtX7XM.i.6.H W.Q.Q.Q.                        ",
"                            Q.Q.Q.Q.W.) >.u.XXtXtXtXtXtXtX7Xm.6./ Q.Q.Q.Q.                          ",
"                                Q.Q.Q._.P ) }.qXtXtXtXtXtX9X'.H Q.                                  ",
"                                      W.L.      tXtXtXtXtX                                          ",
"                                                                                                    ",
"                                                                                                    "
};
