/* XPM */
static char *_ac2d47839ad4009f8c223372e69e0a5eO9AIPoRbULPbiOy[] = {
/* columns rows colors chars-per-pixel */
"50 50 175 2 ",
"   c None",
".  c #161C2E",
"X  c #B06B4D",
"o  c #B16C4D",
"O  c #B26D4D",
"+  c #B36E4C",
"@  c #B46F4C",
"#  c #BF7B47",
"$  c #B5704B",
"%  c #B6714B",
"&  c #B7724B",
"*  c #B5704C",
"=  c #BB7649",
"-  c #B8744A",
";  c #BA754A",
":  c #BC7749",
">  c #BC7849",
",  c #BE7948",
"<  c #BE7A48",
"1  c #BF7A48",
"2  c #C07B47",
"3  c #C07C47",
"4  c #C17C47",
"5  c #C27D46",
"6  c #C27D47",
"7  c #C27E46",
"8  c #C37E46",
"9  c #C37F46",
"0  c #D4933F",
"q  c #D6973D",
"w  c #D4943E",
"e  c #D5943E",
"r  c #D5953E",
"t  c #D4943F",
"y  c #D5963E",
"u  c #D6963E",
"i  c #D7983D",
"p  c #D7993D",
"a  c #D89A3C",
"s  c #D89B3C",
"d  c #DBA03A",
"f  c #DDA339",
"g  c #DCA33A",
"h  c #DDA539",
"j  c #DEA539",
"k  c #DEA638",
"l  c #DEA738",
"z  c #DEA639",
"x  c #E1AC37",
"c  c #E0A938",
"v  c #E7B632",
"b  c #E7B633",
"n  c #E7B733",
"m  c #E5B334",
"M  c #E5B235",
"N  c #E6B634",
"B  c #E8B833",
"V  c #E9BB32",
"C  c #EBBF31",
"Z  c #EABC32",
"A  c #EDC12E",
"S  c #EFC52F",
"D  c #EFC62E",
"F  c #F0C72E",
"G  c #F1C92D",
"H  c #F2CA2D",
"J  c #F2CB2D",
"K  c #F3CE2C",
"L  c #FBDB27",
"P  c #FBDC27",
"I  c #FDDF26",
"U  c #FCDE27",
"Y  c #F6D32A",
"T  c #F7D42A",
"R  c #F8D529",
"E  c #F8D629",
"W  c #F8D729",
"Q  c #F9D729",
"!  c #F9D829",
"~  c #FADA28",
"^  c #FFE321",
"/  c #FFE322",
"(  c #FFE323",
")  c #FFE324",
"_  c #FFE325",
"`  c #FDE026",
"'  c #FEE126",
"]  c #FFE326",
"[  c #FFE424",
"{  c #FFE524",
"}  c #FFE425",
"|  c #FFE525",
" . c #FFE624",
".. c #FFE527",
"X. c #FFE328",
"o. c #FFE42C",
"O. c #FFE42D",
"+. c #FFE42E",
"@. c #FFE42F",
"#. c #FFE735",
"$. c #FFE537",
"%. c #FFE538",
"&. c #FFE63A",
"*. c #FDE23C",
"=. c #FFE63C",
"-. c #FFE63D",
";. c #C68145",
":. c #C78344",
">. c #C68245",
",. c #C78245",
"<. c #C78345",
"1. c #C48046",
"2. c #CA8643",
"3. c #CB8643",
"4. c #CB8743",
"5. c #CC8743",
"6. c #C88344",
"7. c #C88444",
"8. c #CF8B41",
"9. c #CC8842",
"0. c #CD8842",
"q. c #CD8942",
"w. c #CC8843",
"e. c #CE8942",
"r. c #CE8A42",
"t. c #CF8A42",
"y. c #CF8B42",
"u. c #D08B41",
"i. c #D08C41",
"p. c #D18C41",
"a. c #D08D41",
"s. c #D18D41",
"d. c #D18F40",
"f. c #D28F40",
"g. c #D29040",
"h. c #D29140",
"j. c #FFE746",
"k. c #FFE945",
"l. c #FFEA5F",
"z. c #EAC476",
"x. c #FFEB65",
"c. c #FFEB67",
"v. c #FFEC68",
"b. c #FFEC6A",
"n. c #FFEC6E",
"m. c #FFED71",
"M. c #FFEE7D",
"N. c #FFF192",
"B. c #FFF193",
"V. c #FFF29B",
"C. c #FFF3A0",
"Z. c #FFF4A9",
"A. c #FFF5B3",
"S. c #FFF7BF",
"D. c #FFF7C0",
"F. c #FFF8C5",
"G. c #FFF8C9",
"H. c #FFF8CB",
"J. c #FFF8CC",
"K. c #F5E6D8",
"L. c #FFFAD5",
"P. c #FFFBDD",
"I. c #FFFBDE",
"U. c #FFFBDF",
"Y. c #FFFCE1",
"T. c #FFFCE7",
"R. c #FFFCE8",
"E. c #FFFDED",
"W. c #FFFDEE",
"Q. c #FFFDF2",
"!. c #FFFEF6",
"~. c #FFFEF7",
"^. c #FFFEF9",
"/. c #FFFFFD",
"(. c white",
/* pixels */
"                                                                                                    ",
"                                                                                                    ",
"                                            . . .                                                   ",
"                                      . . . . . . . .                                               ",
"                                    . . . .     . . . .                                             ",
"                                    .                                                               ",
"                                            . . .                                                   ",
"                                              .                                                     ",
"                                    .                                                               ",
"                                                                                                    ",
"                                      i.i.q j n n N a i.                                            ",
"                                i.i.8.0 n R I { { { Y q 8.i.                                        ",
"                              i.i.i.j H { { _ _ _ _ _ S g.i.                                        ",
"                            i.i.u.q ~ { { _ _ _ _ _ { P q u.i.                                      ",
"                            i.i.i.g.n R ~ I { _ { { P n g.i.i.i.                                    ",
"                            i.i.i.  i.q q j H { K n j u.i.i.i.i.                                    ",
"                                      8 8 5.0 F m 8.8.i.    i.i.                                    ",
"                                  i.i.>.% 8 i.g.i.8.i.    i.i.i.                                    ",
"                                      i.8.8.i.i.8 8     i.                                          ",
"                                            i.3.* <                                                 ",
"                                            8.% o <                 i.                              ",
"                                            3.% X <                                                 ",
"                            i.                # X 2                                                 ",
"                                            i.>.o 8 i.                                              ",
"                                            i.i.>.7.i.                                              ",
"                                            i.i.q i.i.                                              ",
"                                          i.u.i H i u.                                              ",
"                                          i.8.n { n 8.i.                                            ",
"                                        i.8.j P { P c i.  i.i.                                      ",
"                                i.    i.u.0 H { _ { ~ q 8.i.i.i.i.                                  ",
"                              i.i.  i.8.0 S { _ _ _ _ H j g.i.i.i.i.                                ",
"                              i.i.8.u.q S { _ _ _ _ _ { _ n 8.i.i.i.                                ",
"                            i.8.8.j C R _ _ _ _ +.X._ _ { P c 8.u.i.                                ",
"                    i.i.8.8 8.j C L { { _ _ _ +.V.-._ _ _ { P B 0 8.i.i.i.i.i.i.                    ",
"                  i.i.i.8 = j P { _ _ _ _ _ ( v.U.-.( _ _ _ { { S q i.i.i.8.8.8.i.                  ",
"              i.i.8.8.i.8.g P { _ _ _ _ _ _ +.S.^.c.( #._ _ _ _ _ ~ c u.i.8 @ < 8.i.                ",
"              i.8.: = 8.q H { _ _ _ _ _ _ ( m.~.(.H.n.H.c.( _ _ _ { P j u.8.= o >.i.                ",
"            i.i.>.o 8 u.B _ I _ _ _ _ ( +.m.E.(.(.(.J.L.D.+._ _ _ _ { C i.i.8 X 8 i.                ",
"            i.i.8 o 3.i T x C { _ _ _ &.A.~.(.(.(.(.(.Q.E.v.( _ _ _ { R q 6.8 * 8 i.i.              ",
"            i.i.8 @ 5.n H a R { _ _ _ N.(.(.(.(.(.(.(.~.A.l.( _ _ _ { ~ q 8 % : 8 i.i.              ",
"            i.i.8 o >.g d m { _ _ _ &.U.(.(.(.(.(.(.(.(.U.&._ _ _ _ { ~ q 8.>.< 2 i.i.              ",
"            i.i.>.* 8 u.i.H { _ _ ( c.~.(.(.(.(.(.(.(.(.R.-.( _ _ _ { R q i.i.7.7.i.i.              ",
"            i.i.i.8.8.u.q ~ { _ _ +.C.(.(.(.(.(.(.(.(.(.T.-.( _ _ _ { C i.i.i.i.i.i.                ",
"            i.i.i.i.i.u.q ~ { _ ( M.Q.~.(.(.(.(.(.(.(.(.R.-.( _ _ _ _ j 8.i.i.i.i.                  ",
"              i.i.i.i.u.q R { _ ( j.D.Z.(.(.(.(.(.(.(.(.U.&._ _ _ _ S i.i.i.i.i.i.                  ",
"                i.i.i.i.i.c ~ _ { { #.k.Y.(.(.(.(.(.(.(.N.{ { { { ~ q u.i.i.i.i.                    ",
"                  i.i.i.i.i.q S R B n n z.K.(.(.(.(.(.F.*.A C n n j i.i.i.i.i.                      ",
"                        i.i.8.g.q u.                            8.8.i.i.i.                          ",
"                                                                                                    ",
"                                                                                                    "
};
