/* XPM */
static char *result[] = {
/* columns rows colors chars-per-pixel */
"50 52 6 1 ",
"  c #161C2E",
". c #AC7A58",
"X c #CEA554",
"o c #E9F044",
"O c white",
"+ c None",
/* pixels */
"+++++++++++++++++++++++++++++++++++     ++++++++++",
"+++++++++++++++++++++++++++++++++++       ++++++++",
"+++++++++++++++++++++++++++++++++++  o     +++++++",
"+++++++++++++++++++++++++++++++++++  oooo   ++++++",
"+++++++++++++++++++++++++++++++++++  oooooo  +++++",
"+++++++++++++++++++++++++++++++++    oXXoooo  ++++",
"++++++++++++++++++++++++++++++++     oXXXooXX  +++",
"++++++++++++++++++++++++++++++++      XXooXXX   ++",
"+++++++++++++++++++++++++++++++   OOO   oXXXXX  ++",
"++++++++++++++++++++++++          OOOO   XX     ++",
"++++++++++++++++++++++             OOOO       ++++",
"++++++++++++++++++++      oooooo    OOOo    ++++++",
"+++++++++++++++++++     oooOOOOooo    ooo   ++++++",
"+++++++++++++++++++    oooOOOOOOOooX   oo   ++++++",
"++++++++++++++++++    ooooOOOOOOOoooX       ++++++",
"++++++++++++++++++    ooooOOOOOOOoooX      +++++++",
"+++++++++++++++++   ooooooOOO..OOoooXX    ++++++++",
"+++++++++++++++     ooooooOO...OOooooXXX  ++++++++",
"+++++++++++        ooo     ...OOOooooXXX   +++++++",
"++++++++++       ..XX       ...ooooooXXX   +++++++",
"+++++++++     ooXX.X    XX  ...ooooooXXX   +++++++",
"++++++++   oooooXXXX   XXXooo...oooooXXXX  +++++++",
"+++++++   oOOOOoooXX    XXooooooooooXXXXX  +++++++",
"++++++   ooOOOOoooXX     XXoooooooooXXXXX  +++++++",
"++++++  ooOOOOOooooo        oooooooXXXXX.  +++++++",
"+++++   ooOOOOOo..oooo       XXooooXXX...  +++++++",
"+++++   ooOOOooo...oo   oX   XXXXXXXX....  +++++++",
"+++++  Xoooooooo....   ooXX  XX..........  +++++++",
"+++++  XXoooooooo...   ooo   XXX........   +++++++",
"+++++  XXooooooooo....       ooXX......   ++++++++",
"+++++  XXooooooooo.......   ooooXX....    ++++++++",
"+++++  XXoooooooo........   ooooXX...     ++++++++",
"+++++  XXXooooooo...ooooooooooooXX.....   ++++++++",
"+++++  XXXXoooooo..oooooooooooooXX......   +++++++",
"++++++  XXXXooooooooooooooooooooXX......   +++++++",
"++++++  XXXXXooooooooooooooooooXXX......   +++++++",
"++++++   XXXXXXXooooooooooooooXXX......    +++++++",
"+++++++  XXXXXXXXXXoooooooooXXXXX......   ++++++++",
"+++++++   XXXXXXXXXXXXXXXXXXXXXX......    ++++++++",
"++++++++   XXXXXXXXXXXXXXXXXXXX......    +++++++++",
"+++++++++   .XXXXXXXXXXXXXXXX......      +++++++++",
"++++++++++    ..XXXXXXXXXXX......       ++++++++++",
"+++++++++++       ...XXX....          ++++++++++++",
"+++++++++++++                     ++++++++++++++++",
"+++++++++++++++++            +++++++++++++++++++++",
"++++++++++++++++++++++++++++++++++++++++++++++++++",
"++++++++++++++++++++++++++++++++++++++++++++++++++",
"++++++++++++++++++++++++++++++++++++++++++++++++++",
"++++++++++++++++++++++++++++++++++++++++++++++++++",
"++++++++++++++++++++++++++++++++++++++++++++++++++",
"++++++++++++++++++++++++++++++++++++++++++++++++++",
"++++++++++++++++++++++++++++++++++++++++++++++++++"
};
