/* XPM */
static char *_8f4cd8197ed4d9ba2eb9edd08c6c1e4sSrQKPpqupI3RcMZ[] = {
/* columns rows colors chars-per-pixel */
"50 50 136 2 ",
"   c #C27E1D",
".  c #C5811D",
"X  c #CA851E",
"o  c #CD8B1F",
"O  c #D28C1F",
"+  c #D4911F",
"@  c #DB961F",
"#  c #DC991F",
"$  c #C78221",
"%  c #CC8621",
"&  c #CF8B21",
"*  c #D38E21",
"=  c #D69222",
"-  c #DA9522",
";  c #D79923",
":  c #DD9A23",
">  c #E29D23",
",  c #DEA224",
"<  c #E5A324",
"1  c #E9A525",
"2  c #E5AA25",
"3  c #ECAB25",
"4  c #E5A528",
"5  c #EBA628",
"6  c #E5AC29",
"7  c #EDAB28",
"8  c #F1AE26",
"9  c #F0AD28",
"0  c #F1AD28",
"q  c #F1AE29",
"w  c #F3AF28",
"e  c #F2AF2A",
"r  c #F1AD29",
"t  c #ECB223",
"y  c #EFB223",
"u  c #EAB124",
"i  c #EBB026",
"p  c #EDB024",
"a  c #EFB025",
"s  c #EDB226",
"d  c #EFB226",
"f  c #ECB525",
"g  c #EEB425",
"h  c #EDB626",
"j  c #EDB225",
"k  c #EFB827",
"l  c #E6B029",
"z  c #EAB028",
"x  c #EBB028",
"c  c #EDB329",
"v  c #EEB928",
"b  c #F0B223",
"n  c #F0B124",
"m  c #F2B024",
"M  c #F1B225",
"N  c #F0B325",
"B  c #F0B126",
"V  c #F2B026",
"C  c #F3B127",
"Z  c #F0B327",
"A  c #F2B326",
"S  c #F4B325",
"D  c #F4B027",
"F  c #F5B027",
"G  c #F4B226",
"H  c #F5B226",
"J  c #F5B327",
"K  c #F6B327",
"L  c #F2B425",
"P  c #F0B624",
"I  c #F1B725",
"U  c #F1B426",
"Y  c #F2B526",
"T  c #F3B526",
"R  c #F3B427",
"E  c #F2B527",
"W  c #F1B727",
"Q  c #F5B724",
"!  c #F5B426",
"~  c #F7B427",
"^  c #F6B527",
"/  c #F5B726",
"(  c #F4B627",
")  c #F2B326",
"_  c #F9B725",
"`  c #F8B526",
"'  c #F2B826",
"]  c #F3B927",
"[  c #F1BB27",
"{  c #F4B824",
"}  c #F5B925",
"|  c #F6BA24",
" . c #F7BB25",
".. c #F4B826",
"X. c #F5B927",
"o. c #F6B827",
"O. c #F4BB26",
"+. c #F6BA26",
"@. c #F7BB27",
"#. c #F5BC25",
"$. c #F5BA26",
"%. c #F8BC26",
"&. c #F9BC27",
"*. c #F2B028",
"=. c #F2B328",
"-. c #F5B128",
";. c #F1B428",
":. c #F2B529",
">. c #F3B628",
",. c #F6B428",
"<. c #F4B728",
"1. c #F5B728",
"2. c #F3B428",
"3. c #F8B528",
"4. c #F8B729",
"5. c #F9B72A",
"6. c #F2B828",
"7. c #F5B829",
"8. c #F7B928",
"9. c #F4BA28",
"0. c #F6BA28",
"q. c #F6B92A",
"w. c #F5BB2B",
"e. c #F4BC29",
"r. c #F5BB29",
"t. c #F9BB28",
"y. c #F8BC28",
"u. c #FABC29",
"i. c #FBBF29",
"p. c #FCBF29",
"a. c #F9BD29",
"s. c #FAC127",
"d. c #F6C128",
"f. c #FDC22A",
"g. c #FEC22C",
"h. c #FAC22A",
/* pixels */
"1 1 1 1 < 1 1 < 1 1 1 1 1 1 1 1 1 1 1 < 1 < 1 1 1 < < 1 1 < < 1 1 1 1 1 < 1 1 1 < 1 < 1 1 1 1 1 1 3 ",
"d 7 7 3 3 7 3 5 1 3 1 3 3 5 5 3 7 3 7 3 3 3 3 1 1 3 3 3 3 3 3 7 3 1 7 3 3 3 3 7 0 0 7 3 3 7 3 d 3 d ",
"< 1 3 U ^ d 7 0 3 0 7 0 0 3 U @.t V U U ^ ^ 0 0 0 0 0 7 3 0 7 3 8 3 K 7 U [ U V V 7 h U ^ U :.3 > : ",
"- - : < d 0.@._ 4.V 4.4.0.@.d < > > : : 2 u @.@.^ V 1.^ K K ^ ^ 4.0.0.@.U 3 > : ; : : > 1 1 > - : - ",
": > < > : < 7 0.0.@.@.@.V < > > > > : > : > > 3 h e.#.g.u.t.p.f.u.@.7 < > > > > > > > : : > > > > > ",
"< < > 1 1 < > > 1 < < < > > < > < < < < > < < > < < 1 3 U 1.h z < < > > < < < < > < < < < > < < < > ",
"1 1 1 < 3 3 < 3 < 4 1 1 < 3 < < < 1 1 1 < 1 5 < < 1 1 < > < < > 1 3 7 :.7 3 7 < 2 < 1 3 < < 1 1 < 1 ",
"< 3 3 3 5 7 3 V V b V V 3 3 7 3 3 7 3 3 3 3 3 5 1 1 3 3 5 5 3 7 :.t 2 : ; , 3 U V 3 7 3 3 7 5 3 3 1 ",
"*.0 *.*.7 6.[ h 6 2 2 u 6.[ @.1.d V 3 7 *.3 3 0 0 0 0 0 *.3 U @.< o . $       o < U @.7 0 V 3 7 0 7 ",
"U U @.@.h < = o X X $ $ o = : z 0.u.0.V ^ V K K -.K *.V @.%.7 = X O * = * = * X X + 2 [ @.0.K ^ K ^ ",
"0.U 2 : - O * - = = = = * & X X & : V u.%.u.@.t._ 0.u.%.U < * * = = = - = = = - = = o - < U u.%.h.h.",
"# - = - - ; - : - - - - = : - - = * % ; 3 0.s.f.h.u.0.3 - = - - : - - - : - - - - : : - = - : < 1 < ",
": > : > > : > > > > : : : > > : > : - - = - < < 2 < : - > > : > > > > : : > > > > : : : > > : : : : ",
"< > < > > > > > > > > > < > > < < > < > < > > > > > > > > < > < > > < < > < > > > > > < > < < < < < ",
"< 2 7 3 3 3 3 < < 1 < < < 1 1 < < < 1 5 < 1 1 < 1 1 1 < < < < 1 1 1 < < < < < < 1 1 1 3 0 < 3 3 < < ",
"O * = ; ; < 2 3 7 0 3 1 1 7 1 3 3 3 3 5 1 3 < 5 5 1 3 7 3 1 3 1 1 1 3 1 1 3 0 7 d 7 2 < ; = = & * * ",
"* * * * O * = = ; 2 d ^ K 0 3 3 3 3 3 0 9 3 3 0 3 3 3 0 0 3 7 7 3 0 0 V V 7 3 > - * * * * * * * * O ",
"- - = - = - - = = * = : 3 U t.0.K K w 0 -.V 0 0 0 K V 0 K 8 K 4.U :.u < > - * = = = - - = - - = = - ",
": : : - > : - > > > - - = ; , d 6.u.u.&._ _ ^ ^ _ _ _ t.0.h.6.2 < > > - - > > ; : - - : : @ : : : : ",
"< < > > < < > > : < < > < > ; - ; 4 u k 6.h.h.h.h.h.w.u 2 < : : > : < > < < > > > > > > > : > > > > ",
"3 3 d u u d 7 7 3 < 1 1 1 1 1 1 < > - ; : , , 4 , , : > < < 3 3 3 3 < 1 3 < 1 < < 1 < < 1 < < < 5 1 ",
"u < : : : < < 2 3 d t d 3 3 3 3 3 3 7 3 3 5 1 3 3 3 7 d d d [ :.c h d d 0 3 3 3 3 3 3 1 3 7 7 3 7 *.",
"- = = = * = = = : > 3 [ [ U V t V V V V 0 U V V :.:.@.#.f 2 , , < 4 2 k 6.1.V V 7 V V -.V 7 V @.@.d ",
": : : - : : : : - - - : < [ u.@.0.@.^ ^ ^ U u.@.@.[ 6 : - - - - - - = : < u e.e.[ @.t.^ _ @.0.@.< - ",
"> > > > > > > > : > > > - ; 2 d _ h.f.h.f.%.6.d : ; - : > > > > > : > > > - < z 6.e.d.#.@.U 3 : > > ",
"< > < < > < < > 1 < > < 1 < > > : < 3 < < < : - > > < < < < < < < 1 < < < 1 < < 1 < 3 c 2 3 < 4 1 5 ",
"3 5 5 3 1 1 3 1 < 5 1 1 3 1 3 3 1 < < < > < < < 1 3 1 1 1 3 5 7 3 1 7 1 1 3 1 7 V u 3 < 2 < 2 d d 3 ",
"U V 3 7 0 0 3 7 3 *.7 7 0 7 0 d 3 V V 3 *.0 7 3 3 0 0 3 7 0 d 3 U *.:.7 V U U 7 < = = = = - = - < c ",
"3 @.0.1.^ U :.K -.V K ^ U @.[ 6.e.e.e.#.0.c U K K 0 K K *.@.%.6.u d h U U 3 : = = - - - - : - - - : ",
": < 6.6.e.u.u.u.u.@.u.h.e.c 2 < : > < 6 k d.#.u.t.t.@.f.h.h < - - - ; ; + = = : > : > : : : : : > : ",
"< > > 1 7 U 0.#.h.0.:.7 < > > > < > > > > < c 6.d.h.h.0.2 ; : > < < > > : > < < > > > < > > > < > > ",
"1 3 1 < < < < 3 1 < 1 < < 1 < < < < 2 1 > < < > < < < : : < 3 < 3 1 < 3 1 < 1 < > < < 5 < < < < < < ",
"3 7 d u d V d V 0 7 7 7 3 7 3 3 3 3 5 3 5 3 3 3 1 1 3 3 3 3 7 d h U V 7 7 3 3 7 3 1 3 5 3 3 1 3 3 3 ",
"6.h 7 3 2 2 3 7 z h U ^ 0.b V V 7 *.3 0 V 3 3 0 0 *.V -.^ U h l < , 2 k [ 1.t V V 7 V 3 0 V 7 3 U V ",
": ; - = = = = = O - ; , 3 U [ e.u.@.U V ^ V 1.K 1.K *.#.O.2 ; * * * = ; 2 e.u.1.^ 1.^ V V @.^ 0.0.U ",
"- : - - > - # : : : - = = ; ; < 3 [ h.u.u.u.t._ %.%.h.u = - - : > : : : - : z e.d.h.e.h.h.#.@.7 > : ",
"> > > : > > > > > > > < > > > - - - : 2 U e.h.g.h.c , O = > > > > > > > > > > > 7 c :.d 3 < > - > > ",
"> < < < < < 5 1 5 < < < < < < < < < > > ; : < < : ; - # < 1 > 1 < < < < < < < < > > > > < < < 1 < < ",
"5 1 3 3 3 3 7 3 7 V 7 3 7 1 7 3 1 1 3 5 7 1 1 1 1 1 3 3 3 3 3 3 1 1 5 7 1 3 1 3 7 7 3 7 3 3 3 5 5 3 ",
"0 7 0 0 0 V @.c 2 2 u [ U d 0 V 0 7 0 0 3 V *.d U @.U 1.^ U V d 0 7 c 7 0 7 0 V @.@.U ^ @.d d V 0 7 ",
"V 1.^ 0.#.:.: % X X % = d h.0.1.0.1.^ K K 0.[ e.h 2 2 2 2 u 0.#.u.u.@.1.1.1.u.0.2 ; * = : d %.:.1.^ ",
"s.s.f.U : * * o * & O % X 4 e.h.u._ %.f.h.k , ; X X X X X X & = ; 2 3 U @.d < o   . X % % * # V h.#.",
"3 < ; = O = = * = * O = = & - 6 k e.w.u < = * * = = = = - = * * % X X X o X . X + = = = * = * O : 4 ",
"= - - - : - - : : : ; - : : = = = - ; - = - - - - - : - - : - - > > : - - : - - - - - : - - : - = - ",
"> > > : < > > > : > > > > > > > > > > > : > > > > > > > > < > : > : < < < < > > > > > > > : > > > > ",
"< < 5 1 1 1 1 1 < < 1 1 1 5 < < < 3 3 3 7 1 < 3 < 1 1 5 1 1 3 7 d 2 2 2 3 3 7 3 1 1 < < 1 1 1 < 1 1 ",
"U U V d 7 7 7 3 3 3 3 7 7 3 d V U d < 3 3 d h U U :.d V U d d 2 # ; = = ; ; , 7 U d 7 3 7 0 0 7 *.1.",
"< < d :.U @.@.1.1.^ 4.^ 0.@.0.3 < - - = = : > < 3 d d d 2 : - + = - - - - = = ; : d @.u.0.0.u.@.V 2 ",
": : - : < 3 V %.u.u.%.%.U 3 > - : : : : : - - - - : : : - : : : > : : : : : : : - - < 3 z 3 < > - ; ",
"> > > > > : : < < < < < : : > > > > > > > > > > : > > > > > > > > > > > > > > > > > > : : > > > > > "
};
