/* XPM */
static char *d4533b8e60c64641cc228ef33e922009HIaj3c3LCTPKiImU[] = {
/* columns rows colors chars-per-pixel */
"50 50 231 2 ",
"   c None",
".  c #6F1531",
"X  c #570A37",
"o  c #5A593E",
"O  c #61553C",
"+  c #01015B",
"@  c #0E0D5E",
"#  c #12025A",
"$  c #130C5F",
"%  c #1D165C",
"&  c #210754",
"*  c #26185C",
"=  c #340953",
"-  c #3A2659",
";  c #010163",
":  c #0C0B66",
">  c #090867",
",  c #130B62",
"<  c #140B65",
"1  c #191568",
"2  c #171771",
"3  c #241D67",
"4  c #331362",
"5  c #2B266A",
"6  c #352B67",
"7  c #2A297B",
"8  c #352E72",
"9  c #3C3575",
"0  c #3D3464",
"q  c #411557",
"w  c #4C1451",
"e  c #6C184A",
"r  c #5C3C4F",
"t  c #432E5B",
"y  c #472D54",
"u  c #4B335A",
"i  c #563B5B",
"p  c #7B255A",
"a  c #453A6E",
"s  c #483669",
"d  c #433B78",
"f  c #4E3870",
"g  c #763A66",
"h  c #471860",
"j  c #5E415A",
"k  c #47474C",
"l  c #754D4A",
"z  c #794F49",
"x  c #654456",
"c  c #6E4B56",
"v  c #6B4B58",
"b  c #714D54",
"n  c #785457",
"m  c #64424E",
"M  c #534867",
"N  c #564666",
"B  c #594E7B",
"V  c #544979",
"C  c #5C517A",
"Z  c #4C426D",
"A  c #6B5869",
"S  c #65577C",
"D  c #72526D",
"F  c #736367",
"G  c #796968",
"H  c #7A6679",
"J  c #91111A",
"K  c #8F1528",
"L  c #B01B28",
"P  c #A7140F",
"I  c #D61E13",
"U  c #DB251F",
"Y  c #EC2918",
"T  c #FE3B2A",
"R  c #ED3B36",
"E  c #CE2A31",
"W  c #B3763F",
"Q  c #D66D1F",
"!  c #84274F",
"~  c #A23A5D",
"^  c #CE3C4A",
"/  c #E33D41",
"(  c #875C54",
")  c #83574F",
"_  c #976447",
"`  c #9B6B52",
"'  c #926856",
"]  c #956C59",
"[  c #A26E4E",
"{  c #A36C46",
"}  c #AE754C",
"|  c #B67A48",
" . c #AA7B59",
".. c #A06D50",
"X. c #80527F",
"o. c #887568",
"O. c #8F7265",
"+. c #A87E65",
"@. c #FF4F4F",
"#. c #F74F50",
"$. c #DF4551",
"%. c #99962E",
"&. c #BCB922",
"*. c #C1BE22",
"=. c #C9853F",
"-. c #DDD60B",
";. c #BE814C",
":. c #B88A58",
">. c #988368",
",. c #968168",
"<. c #A68A69",
"1. c #B69B68",
"2. c #AA9269",
"3. c #A69758",
"4. c #C4854B",
"5. c #CD8B4A",
"6. c #C48345",
"7. c #D18E4A",
"8. c #D18D44",
"9. c #D3914B",
"0. c #D99349",
"q. c #C89356",
"w. c #D79C52",
"e. c #DBA556",
"r. c #E2AB56",
"t. c #E4B25C",
"y. c #C39870",
"u. c #C5AA69",
"i. c #D3AE6C",
"p. c #E8B765",
"a. c #DFC06A",
"s. c #EAC265",
"d. c #E5C56A",
"f. c #ECCA69",
"g. c #EDC868",
"h. c #F2CC68",
"j. c #F5D36B",
"k. c #F8D66B",
"l. c #FAC678",
"z. c #F8D778",
"x. c #F6D473",
"c. c #1B2590",
"v. c #403E85",
"b. c #3B4CB1",
"n. c #454285",
"m. c #484588",
"M. c #5A548B",
"N. c #53508D",
"B. c #585A9A",
"V. c #554B86",
"C. c #675D88",
"Z. c #746581",
"A. c #7B6B82",
"S. c #76698C",
"D. c #64649C",
"F. c #756D9B",
"G. c #7B749B",
"H. c #4C5EB2",
"J. c #7B7AAB",
"K. c #6766A1",
"L. c #5468BA",
"P. c #5971C8",
"I. c #707DCB",
"U. c #857385",
"Y. c #887888",
"T. c #867A96",
"R. c #907D88",
"E. c #817FAC",
"W. c #9A868B",
"Q. c #958896",
"!. c #A48F8D",
"~. c #AA948F",
"^. c #A9928A",
"/. c #AE9891",
"(. c #B39A93",
"). c #B59D8F",
"_. c #BDA494",
"`. c #BDA79B",
"'. c #BFA687",
"]. c #8282B3",
"[. c #8D88AA",
"{. c #B0A6B6",
"}. c #C5AB96",
"|. c #C8AF96",
" X c #CBB195",
".X c #D6BA99",
"XX c #C9AC8A",
"oX c #C7B3A6",
"OX c #C6B8B7",
"+X c #FFADAC",
"@X c #E9B7A3",
"#X c #F8B3AA",
"$X c #E0A192",
"%X c #DEC19C",
"&X c #EBC886",
"*X c #EACB9E",
"=X c #E4C79C",
"-X c #FED895",
";X c #F7CF8B",
":X c #DBC7B4",
">X c #EBCEA4",
",X c #F5C6A5",
"<X c #EFD0A1",
"1X c #EDD2AB",
"2X c #FEDEA5",
"3X c #F6D7A4",
"4X c #EBD4B4",
"5X c #FFE2A6",
"6X c #FFE7A8",
"7X c #FDE9B8",
"8X c #999AC1",
"9X c #A3A4C9",
"0X c #A9AACB",
"qX c #B0B0CF",
"wX c #95A6EE",
"eX c #8E9FEA",
"rX c #C3BCC5",
"tX c #C6C6DC",
"yX c #EEDCC5",
"uX c #FFECC3",
"iX c #FAE4C3",
"pX c #FAEDCE",
"aX c #CACCE2",
"sX c #CDD0E4",
"dX c #D4D4E5",
"fX c #F8DEE1",
"gX c #FFE1E0",
"hX c #F9EBE6",
"jX c #EDEDF5",
"kX c #FEFEFF",
"lX c #F3F3F8",
/* pixels */
"                                                                                                    ",
"                                                                                                    ",
"                                          ; ; ; ; ; ; ;                                             ",
"                                  ; ; 1 W.!.!.!.!.!.!.!.!.8 ; ;                                     ",
"                              < C  X|. Xz.z.z.z.z.z.z.z.z. X|. XA.<                                 ",
"                          5 a .X&Xx.x.k.j.j.j.j.j.j.j.j.j.j.x.j.&X=Xf *                             ",
"                        8 XXx.j.j.k.1.,.>.>.>.>.>.>.>.>.>.d.j.j.j.j.e.:.-                           ",
"                      8 '.z.f.G F F F F F F F F F F F F F F F F F u.k.h.:.-                         ",
"                    5 }.^.M N O.>.,.i.k.j.j.j.j.j.j.j.j.j.2.,.>.>.A M F f.:.-                       ",
"                    : a o.u.u.h.j.j.j.g.g.g.g.g.g.g.g.g.g.h.j.j.j.i.1.<.0 ]  .-                     ",
"                  5 M u.1.d.j.f.s.s.s.w.9.9.9.9.9.9.9.9.9.9.p.s.s.h.j.f.a.o.0 n ,                   ",
"              6 M i.<.o.s 1.g.t.7.9.9.9.9.9.9.9.9.9.9.9.9.5.5.5.5.e.t.s.j.f.f.A ;                   ",
"            6 1.j.o.A ' r.] v 5.} x x x x x x x x x x x v ;.9.7.7.5.4.v O.t.s.f.F                   ",
"          5 1.p.w.` w.[ t c n u * ; ; U.U.; V 9 ; ; ; ; ; - t t ( 5.5.( v ( w.g.d.G                 ",
"        5 1.t.9.5.7.} j ` u * ; ; Z..X2X.X> A.%X3 ; ; ; U.8 ; ; , * [ 9.4.v ` w.g.d.F               ",
"      6 1.` c 7.5.5.5.;.j ; ; ; Z 2X5X2X5XW.; /.B ; ; ; ~.*X8 ; ; ; 1 [ 7.4.4.5.w.s.d.A             ",
"      ,.q.- 5.5.7.9.5.j ; ; ; > W.5X2X2X5X|.1 !.<X: ; ; ~.5X=X9 ; ; ; 1 ..7.5.5.5.5.e.d.5           ",
"    Z u.q.) 5.7.( x i ; d 5 ; Z.A._.5X2X2X5X_. X2XZ.; ; /.2XU.U.9 ; ; ; % ` 7.5.5.5.5.e.o.          ",
"    G t.5.7.5.7.` b ; ; Y.S Y.<X!.A.B %X5X2X5X5X5X.X; ; 9 S W.|.%X8 ; ; ; x 9.5.5.5.5.5.q.1         ",
"    F e.5.5.5.4.i * ; Z U.1 .X<X<X X~.S %X2X2X2X2X2XY.; A._.*X*X2XS : R.: , ` 7.5.5.5.5.5.( ;       ",
"    o.e.5.5.n > 3 5 ; B W.~. XV.n.n.m.W.Z.2X2X2X2X5X_.H S.n.n.v.Y.=XV d W.; c 5.7.5.5.7.7.} *       ",
"  M t.5.5.c ; 7 |.*X2 T.5X}.F.jXkXkXkXJ./.2X2X2X2X5X=XG.tXkXkXkX0XT.%XY.!.; ; c _ 7.5.[ | ` z       ",
"  M t.5.4.c - T.7X*Xn.uX5XV aXjX].J.dXjX9 2X2X2X2X5XW.J.kX8XJ.0XkXB.|.6X~.; ; > S ( 0.t ' - z ;     ",
"  M t.5.5.0.) G.7X*Xd iX5XOXlXaX; + 0XkXrX2X2X2X2X2X:XdXkX7 + N.kXtX1X5X~.; ; 1 %X( t b i _ z ;     ",
"  M t.5.5.9.) G.7X*Xv.iX2XhXkXdX2 : qXkXhX2X2X2X2X2XiXkXkXn.> D.kXlX7X5X~.; ; 1 ;X .; ( t W z       ",
"  t ;.5.5.7._ S.oX).9 uX5XY.qXkXlXlXkXtXS.2X2X2X2X5X_.E.lXlXlXkXjXF..X5X(.O.i ; XX .i 5.4._ $       ",
"    r 8.5.7.| A M.M.C.oX5X3XA.8X9X9X9XS.<X2X2X2X2X2X5X~.].9X9X9XJ.}.5X2X5Xi.S N.C.j x 9.7._ ;       ",
"    - { 7.| A OXuXuX1XF _.5X3XU.A.A.U.<X5X5X5X5X5X5X5X6X~.A.A.Z._.5XW.3X.XS.:XuX4XH v } 6.r         ",
"      z 8.[ M.uX2X2X-X] A.6X2X5X6X/.C B B B B B B B B B S =X5X5X5XR.W.2X!.G.7X2X5X-Xn n W :         ",
"      * _ 6.b Q.yXyX.XC.:X5X2X5X).J.sXaXaXaXaXaXaXaXaXaXaXM. X9 8 W.Z.<X&XF `.5X-Xp.n l y           ",
"        % _ W l 6 a OX/.T.7X5X5XW.F.hXgXgXgXgXgXgXfXsXsXaXM.*X!.U.2X<X-X .F.2Xi.+.- m y             ",
"          * z _ =.4.N oXH D.7X7X|.g $.@.@.@.@.@.@.$.e 4 ;  X5X2X2X2X-X&Xo.^.y.i x } y               ",
"              - r | | A X.e S.[.uXoXg p ~ +X+X+X+X+X$X4 V >X5X2X-Xl.O.n <.y.x } b y                 ",
"                  - y * p T L ! V.{.rXQ.Q.B.B.B.B.B.F.!.*X2Xl.l.+.u . . i x r -                     ",
"                        , ~ #./ E ! d s N  . . . . .q.p.p.i.u - . J P = ; $                         ",
"                          , , q ^ / U U K s a a a 8 * q q w J J X # #                               ",
"                                ; ! T Q s @X,X,X,X(.w Y U K # ;                                     ",
"                                  p T Q s @X#X,X,X@XD L I &                                         ",
"                                h ^ Y e < f V C B f 8 & P J #                                       ",
"                                h R e %.*.&.&.&.&.%.k o & J #                                       ",
"                                > # H.P.P.P.L.H.H.P.b.> %.O ;                                       ",
"                                  + I.wXeXI.c.; > b.eXI.%.-.%                                       ",
"                                    K.].].D.      7 ].].7 o @                                       ",
"                                    ; v +           + u 6 ;                                         ",
"                                  S _.f               3 Y./.1                                       ",
"                                  : 1 ;                 < 1 ;                                       ",
"                                                                                                    ",
"                                                                                                    ",
"                                                                                                    ",
"                                                                                                    "
};
