/* XPM */
static char *result[] = {
/* columns rows colors chars-per-pixel */
"50 48 174 2 ",
"   c #0E142C",
".  c #11172D",
"X  c #151B2E",
"o  c #181E2F",
"O  c #1B212F",
"+  c #1D2430",
"@  c #1E2934",
"#  c #202631",
"$  c #232B32",
"%  c #292E33",
"&  c #253136",
"*  c #2B3333",
"=  c #2E3834",
"-  c #27343C",
";  c #293738",
":  c #2D3C3A",
">  c #323635",
",  c #333C36",
"<  c #393D37",
"1  c #303E39",
"2  c #3A3E38",
"3  c #364135",
"4  c #3A4637",
"5  c #3C4937",
"6  c #33443D",
"7  c #35483F",
"8  c #3D4B39",
"9  c #42453A",
"0  c #444C3A",
"q  c #4B4D3C",
"w  c #445339",
"e  c #4B533C",
"r  c #4C5B3B",
"t  c #52553E",
"y  c #52643D",
"u  c #56683D",
"i  c #5A6C3E",
"p  c #5E723F",
"a  c #3A4E41",
"s  c #3D5443",
"d  c #405440",
"f  c #435B46",
"g  c #40524C",
"h  c #5E5F41",
"j  c #496045",
"k  c #476149",
"l  c #4B674A",
"z  c #4E6B4C",
"x  c #5B7446",
"c  c #536B55",
"v  c #557650",
"b  c #5B7D53",
"n  c #636442",
"m  c #636B42",
"M  c #6A6B45",
"N  c #617540",
"B  c #667A41",
"V  c #697E42",
"C  c #707146",
"Z  c #767F47",
"A  c #7B7B49",
"S  c #5E8355",
"D  c #6D8343",
"F  c #6F8E4F",
"G  c #738445",
"H  c #738A44",
"J  c #7A8847",
"K  c #7D8349",
"L  c #728D49",
"P  c #7B9446",
"I  c #7F9847",
"U  c #7F9948",
"Y  c #618655",
"T  c #668B56",
"R  c #6E8D56",
"E  c #67875D",
"W  c #678E5A",
"Q  c #698F58",
"!  c #6C955C",
"~  c #6E995D",
"^  c #709759",
"/  c #739E5E",
"(  c #7FAB5F",
")  c #6F976F",
"_  c #6D996E",
"`  c #729F60",
"'  c #749B6B",
"]  c #7A9A6E",
"[  c #638F77",
"{  c #669175",
"}  c #6A9374",
"|  c #739772",
" . c #779871",
".. c #789970",
"X. c #76A663",
"o. c #7AA464",
"O. c #77A863",
"+. c #7AA963",
"@. c #87864C",
"#. c #8B894D",
"$. c #918F4F",
"%. c #809A47",
"&. c #89964B",
"*. c #839D48",
"=. c #92904F",
"-. c #959350",
";. c #999651",
":. c #9D9B52",
">. c #A29F52",
",. c #86A149",
"<. c #8AA44A",
"1. c #8DA94A",
"2. c #92AE4C",
"3. c #9BAA4F",
"4. c #94B24C",
"5. c #9AB64E",
"6. c #97B84F",
"7. c #9BB94E",
"8. c #80A455",
"9. c #89AA54",
"0. c #84AD5D",
"q. c #89AF5A",
"w. c #8BA25B",
"e. c #99A050",
"r. c #99AA5C",
"t. c #8EB256",
"y. c #8AB159",
"u. c #94B553",
"i. c #99B751",
"p. c #96B853",
"a. c #9BB951",
"s. c #96B15D",
"d. c #9BB15F",
"f. c #A0BD4F",
"g. c #A5A154",
"h. c #AAA656",
"j. c #A2A952",
"k. c #AFAB57",
"l. c #B1AD57",
"z. c #A2B752",
"x. c #A8B453",
"c. c #A3BA51",
"v. c #ACBA54",
"b. c #A4B35E",
"n. c #ABB55D",
"m. c #AFB95D",
"M. c #B0B456",
"N. c #B3BA56",
"B. c #B3B55D",
"V. c #BAB65A",
"C. c #B5B959",
"Z. c #BDBA5B",
"A. c #8A9E67",
"S. c #829D6D",
"D. c #82A562",
"F. c #83AB62",
"G. c #8BAD61",
"H. c #84A16F",
"J. c #8BA26A",
"K. c #96A565",
"L. c #93AF60",
"P. c #9BA966",
"I. c #93A568",
"U. c #96B161",
"Y. c #99B060",
"T. c #A6AE63",
"R. c #A8AF62",
"E. c #ABB161",
"W. c #C1BB5B",
"Q. c #A1C04F",
"!. c #A2C150",
"~. c #ACC053",
"^. c #C5C05D",
"/. c None",
/* pixels */
"/./././././././././././././././././././.o o . . o o /./././././././././././././././././././././././.",
"/./././.o X X X X X /./././././././././.. + s f $ . o /././././././././././.o X X X /./././././././.",
"/././.o X t #.#.h X X o X X X /./.o X X o v +.+.S + o o o + o . X /././.o X # A #.q . o /./././././.",
"/././.. 9 V.^.W.V.q . O = * X X X X * $ o Y +.+.+.b . % -.h.M > * X /./.X # @.W.W.k.0 o /./././././.",
"/././.. e W.W.W.W.A $ i 4.4.y , X w 5.H 5 : O.+.X.f * ;.W.W.Z.V.g.2 X X   n W.Z.W.Z.h.# X /././././.",
"/././.X % $.W.W.W.V.0 4.7.7.Q.D X %.7.7.0.b O.+.w.< ;.W.Z.W.Z.W.W.g.< # C :.W.W.Z.W.k.# o /././././.",
"/./.X X . % -.C.f.c.<.4.7.7.7.D o H 7.7.v.m.n.B.V.h.W.W.W.Z.W.W.W.V.e $ Z.W.Z.W.W.V.:.# X /././././.",
"/.. > 9 >   $ 2.7.7.7.7.7.7.7.5.x e 4.v.C.c.c.Z.W.W.W.Z.Z.Z.C.C.V.n X q M.Z.W.C.-.q o X X /././././.",
"X < g.W.h.M > <.a.7.7.7.7.5.7.7.5.7.7.c.f.7.7.c.v.v.C.W.Z.c.7.f.&.< m 3.7.f.N.:.o 5 i M 9 X /./././.",
". n ^.Z.W.^.>.x.7.7.7.7.7.7.7.7.7.7.7.7.5.7.7.7.a.a.7.C.Z.7.5.7.2.:.Q.7.7.7.7.3.H 1.c.^.h.2 . /././.",
". n ^.Z.C.~.~.7.7.u.u.u.u.7.7.7.7.7.7.7.7.7.7.7.7.7.5.7.7.7.7.7.f.N.7.7.7.7.7.7.Q.7.7.C.Z.e . /././.",
". 9 j.f.7.*.B 9.0.+.+.o.+.y.5.y.t.t.5.7.7.7.7.x.v.7.7.7.7.7.7.7.7.7.7.7.7.7.7.2.B ,.Q.f.,.= X /././.",
"o . 3 r r = s X.+.+.O.+.+.O.0.O.+.+.y.7.7.v.C.W.Z.v.7.7.7.5.7.7.7.u.0.0.7.7.7.2.B u r r , . /./././.",
"/.o . @ # j ( +.0.+.( +.+.+.O.+.O.O.G.M.B.Z.W.W.Z.Z.Z.Z.n.0.( u.u.0.( O.0.5.7.7.7.1., . X X /./././.",
"/.o , ,.4.7.y.0.5.i.5.u.+.+.+.0.0.+.O.+.F.b.B.W.Z.n.n.b.F.0.+.+.+.y.7.0.O.0.6.7.5.u.~ O o /././././.",
"/.X D 7.7.7.7.7.7.7.7.7.y.+.y.7.7.t.y.y.y.q.u.v.v.y.y.y.y.7.u.q.y.7.7.7.y.y.6.7.u.( ( s X X o /././.",
"/.X B f.7.7.7.7.7.7.7.7.u.u.7.7.7.i.i.5.6.6.7.5.5.5.a.7.i.0.y.7.5.i.y.0.0.y.7.f.9.+.+.T o O O X /./.",
"/.o # G <.i.t.t.t.5.7.t.u.7.5.a.c.D.] } } ' u.u.' } o.0.+.+.( y.0.+.+.O.+.+.y.y.( +.! z # H *.= X /.",
"o o O X > E } [ { ] D.} [ o.a.C.Z.W.B.J.| { ' ' { J..._ +.+.+.+.+.O.+.+.O.O.+.+.+.S @ @ H 7.7.D X /.",
"X X t @.h - g K.A.} } T.S.} n.W.W.Z.Z.W.E.} { } K.Z.B...' b.G.+.+.u.0.+.y.u.( +.+.L V L 7.7.f.D X /.",
". t V.^.V.>.>.Z.V.E.B.W.V.B.Z.Z.Z.V.B.Z.W.E.} I.W.Z.Z.V.B.W.V.G.0.7.6.u.7.7.u.+.+.+.F.+.y.i.a.x X /.",
". n W.W.W.W.W.n.n.Z.W.Z.W.W.W.W.B.F.+.G.Z.W.T.T.C.a.c.Z.W.Z.W.W.Z.x.f.5.7.7.7.( +.+.+.U.U.R z O /./.",
"  n ^.N.W.n.Y.+.o.q.d.W.n.Y.d.r.G.O.O.O.G.Y.b.v.7.7.7.c.v.v.v.Z.W.C.f.7.7.7.y.0.Y.T.s.M m = . o /./.",
"/.% J 7.c.i.u.u.y.+.+.G.+.O.X.O.O.O.+.+.+.X.+.( 0.5.u.7.7.7.u.a.z.7.5.7.7.5.u.6.c.x.f.N o . o /././.",
"/./.@ D ,.7.7.7.7.7.7.t.0.0.0.O.+.O.O.O.X.+.+.O.+.+.( q.u.q.( ( O.+.y.7.7.7.5.7.7.7.7.7.u . . o o /.",
"/.o . . * I 7.7.7.7.7.6.y.y.q.+.+.0.y.0.o.+.O.+.+.+.O.O.+.+.X.q.Y.G.t.7.7.7.7.7.7.7.7.1.4 8 r o o /.",
"o o n #.K ,.7.6.0.0.0.0.+.O.+.+.0.7.7.i.( O.O.+.+.( y.u.u.y.d.V.W.Z.z.7.7.7.7.7.7.7.4.8 0 2.7.y X /.",
". t Z.W.^.v.7.7.6.u.u.6.6.6.u.u.7.7.7.7.y.+.( y.u.7.f.C.Z.c.N.W.W.W.Z.a.7.7.7.7.7.7.7.,.4.7.7.N . /.",
". y v.v.N.N.7.7.4.7.7.7.6.7.7.7.7.7.7.5.7.7.7.7.7.v.W.Z.Z.Z.W.n.b.B.Z.v.v.x.a.7.7.7.7.7.7.I i O /./.",
"X = *.7.7.5.7.7.7.7.7.7.7.7.7.7.7.7.7.7.7.7.7.7.t.L.s.s.s.r.U.F.X.F.B.Z.Z.Z.C.N.v.v.9.u y $ . /././.",
"/.X * 3 3 G 7.7.7.7.7.7.7.7.7.5.7.7.7.7.7.u.u.q.o.+.+.y.u.+.O.+.+.O.+.G.G.G.F.G.G.G.+.z   X /./././.",
"/././.  5 5.7.7.7.7.7.5.7.7.7.7.7.7.6.7.7.y.0.0.0.q.7.7.7.y.0.0.+.+.O.O.O.O.O.O.O.o.+.Q 8 + X /././.",
"/././.. 0 7.7.7.7.7.7.7.7.5.5.7.a.7.7.7.7.5.7.7.7.7.7.7.7.7.5.7.q.+.O.0.y.y.( O.O.+.+.y.7.V # /././.",
"/./.X & P 7.7.7.7.7.7.7.5.D.' ' ' u.7.7.D.' ' ' u.7.7.7.z.N.C.f.u.+.q.7.7.7.u.0.y.u.u.7.7.7.* X /./.",
"/.. * I 7.7.7.7.7.7.7.0.} | ] } { | u.o.{ | | | ' y.7.z.C.W.Z.Z.a.F.y.7.7.7.7.u.7.<.*.7.7.,.$ X /./.",
"X = I 7.7.t.q.7.u.w.F.{  .B.W.n.A.} [ { ] Z.W.Z.K.J.9.N.W.Z.W.Z.W.n.q.6.7.7.7.7.7.G * p V , X /././.",
". y 7.7.7.o.{ o.| { } { I.W.W.W.W.T.J.S.B.W.Z.Z.W.V.b.Z.Z.W.Z.W.W.W.x.7.7.7.7.v.N.C.#.h X X /./././.",
". y Q.f.P c } [ } K.R. .| R.W.W.Z.W.V.V.W.Z.W.W.W.Z.W.Z.Z.W.Z.Z.W.V.Z.C.7.7.7.Z.Z.Z.^.Z.m o X /././.",
". 8 2.7.y t A.H.P.Z.W.V.P.n.W.V.W.W.W.W.W.Z.Z.N.C.C.W.Z.W.B.n.Z.W.W.V.V.c.c.c.7.7.7.7.7.7.8 X /././.",
"X X 0 r o X t A Z.Z.V.W.W.Z.W.B.d.d.b.W.Z.Z.c.7.7.7.C.W.V.s.o.U.V.W.W.W.W.Z.N.7.7.7.7.7.7.0 . /././.",
"/./.. . X + C >.Z.v.c.z.C.Z.B.F.O.O.+.s.x.N.7.7.7.7.a.s.G.+.+.+.C.Z.Z.Z.C.c.c.7.7.7.4.5.Z # X /././.",
"/././.. O N Z.W.C.a.u.+.+.+.^ +.O.+.+.y.f.f.7.7.i.+.+.+.O.+.! T i.z.7.f.f.7.7.7.7.7.5 # O X /./././.",
"/./.X + x 7.v.~.N.P / +.o.` a X.+.+.+.y.L 9.7.t.S ( O.+.0.0.b & B 7.7.7.7.%.<.7.x.N.M o X /././././.",
"/./.X $ +.u.7.a.a.d Y +.+.` & z +.+.+.b & ! 9.( 6 ! O.q.a.a.u.3 = 5.7.7.f.y G !.x.v.v.i o /././././.",
"/./.o $ ! +.( +.+.s - W ! a . + z +.W + z ( +.+.: 6 ` t.7.7.f.4 X y <.<.D # H 7.7.7.7.I X /././././.",
"/././.X : ! +.( / : . + + o o . O l k * I 7.7.t.:   7 8.f.f.*.= . o O O O . H Q.7.7.7.i o /././././.",
"/./././.o : k f 6 . o /./././././.X . u Q.7.7.7.3 X o 6 j u 1 X o /./.o o X w 2.7.6.i o o /././././.",
"/././././.X . . . o /././././././././.$ I 7.7.B O . o . . . X /./././././.X o , 4 4 O X /./././././."
};
